<svg width="231" height="303" viewBox="0 0 231 303" fill="none" xmlns="http://www.w3.org/2000/svg">
<path d="M1.06872 19.3971C8.69239 15.5986 14.9624 8.20956 19.3125 3.42076M2.31468 21.9736C8.14704 16.5287 12.6452 9.18542 18.9505 2.64369M1.71014 38.7178C11.3177 31.0072 22.676 19.1531 33.9089 6.11684M2.3933 39.3198C10.731 30.9365 17.0004 21.5062 33.1838 2.46083M1.49542 57.3345C13.1317 44.5044 29.7057 29.2636 51.4731 2.03259M1.06809 58.4232C18.0331 40.6905 30.9996 22.4482 48.4357 4.66137M1.95893 77.6294C24.276 48.9321 50.5538 18.7317 62.0697 0.56015M3.95063 75.6919C25.507 48.5283 49.7398 24.1093 65.3859 3.73825M2.90829 96.4338C21.0569 73.8824 38.0457 51.5352 82.5963 4.36194M1.62827 94.1474C34.1988 59.6506 62.7934 22.014 81.3187 4.70087M3.24372 112.658C23.3674 86.5129 47.6821 57.4356 97.56 2.27587M2.50694 112.832C29.5116 77.51 56.1255 47.4456 94.5769 4.2387M3.40944 128.491C29.8063 93.7953 61.5271 59.8125 111.839 2.01888M3.44375 129.809C41.6944 83.3254 83.5992 34.5809 112.339 2.33154M2.75929 145.643C34.8359 113.471 59.6272 78.0372 124.645 2.93119M1.28295 148.414C39.4001 101.266 80.3624 57.3564 125.078 2.54193M4.30462 168.209C38.6739 124.437 74.6865 83.8229 141.706 3.12392M4.03246 165.774C53.3284 108.954 102.002 52.7583 143.161 3.82298M2.6336 185.3C57.9078 121.704 117.269 55.7837 158.955 5.32346M4.13199 183.174C33.3641 146.961 65.2881 110.043 158.378 3.38273M0.645508 200.805C55.4226 144.744 106.605 84.4743 175.13 5.64608M1.76545 201.055C48.7068 149.145 92.8246 94.9743 173.541 3.68315M2.20173 221.743C72.3823 134.823 146.911 47.6426 187.147 0.760577M4.02134 219.579C56.0692 156.766 111.422 93.1727 188.242 3.86578M1.07208 237.732C70.9364 158.74 141.88 73.7881 201.239 4.34776M3.58025 237.99C58.2674 174.883 113.298 110.876 201.814 4.24835M4.99769 257.866C60.5739 188.558 120.77 115.908 216.43 3.19208M3.65472 256.458C83.4989 159.617 162.307 66.5862 219.063 5.06452M0.683045 272.773C82.0876 182.429 156.945 91.8095 230.063 11.8794M3.0277 272.852C57.3085 210.681 107.423 149.588 227.201 11.035M2.38271 292.915C87.9622 191.878 173.909 92.8792 229.035 26.264M4.05238 292.184C65.609 216.324 129.604 140.23 228.908 28.8723M8.80874 301.371C70.3815 232.646 126.087 164.004 225.801 47.4398M10.5639 299.115C89.2011 206.135 171.23 111.739 225.988 46.6488M25.4822 298.648C79.987 239.783 130.37 180.835 229.645 65.4426M26.5123 301.299C72.3458 247.791 116.39 196.916 228.599 65.7967M41.0114 302.344C112.114 219.328 183.05 134.651 225.032 81.0912M40.6399 300.565C115.974 215.474 189.787 127.754 226.682 83.7593M54.8389 300.107C123.759 222.923 187.302 145.996 226.287 103.327M56.3484 298.752C102.655 249.613 143.618 200.787 229.093 101.861M73.8043 300.275C105.488 261.947 141.469 224.572 230.036 117.735M73.2283 299.645C113.73 252.836 155.309 205.332 229.216 119.671M89.6279 301.3C138.256 243.713 187.358 179.273 227.012 137.989M87.5049 299.467C127.671 253.575 164.485 210.076 227.38 137.207M104.952 296.946C142.492 252.057 186.752 202.113 228.482 156.687M104.048 299.075C132.126 267.142 160.872 232.903 228.683 155.859M121.613 298.543C149.275 267.845 175.631 232.995 227.362 175.081M118.09 299.102C143.026 270.708 167.563 243.761 228.898 173.541M133.28 297.731C157.37 267.722 189.545 239.269 225.319 189.046M133.8 298.758C155.39 275.862 176.209 251.229 228.303 190.915M148.347 301.067C165.617 280.19 187.053 254.581 226.607 208.49M149.828 300.08C180.87 267.382 209.758 231.528 226.919 207.777M166.972 299.854C185.453 277.684 203.468 257.55 228.472 226.159M163.951 299.607C181.157 281.054 195.328 261.717 227.586 227.25M178.386 299.764C198.591 279.963 217.041 259.966 227.745 247.172M181.257 300.271C197.951 277.88 218.184 256.082 227.05 243.823M198.057 300.132C209.152 285.396 219.362 267.848 226.51 260.443M196.645 298.529C202.347 291.111 209.673 283.651 227.014 264.05M211.886 297.186C217.055 293.338 220.492 289.538 225.775 278.658M212.648 298.333C215.277 295.486 218.066 291.706 228.254 280.682M2.78376 3.66854V3.66854Z" stroke="#0A0A0A"/>
<path d="M5.66195 1.61787C47.4278 -1.2839 95.0562 2.8874 229.072 1.64266M4.3013 0.56015C72.7727 3.44714 138.5 1.2209 227.553 0.942407M227.917 3.44532C230.017 89.5345 231.613 178.282 226.923 298.632M226.046 2.4364C228.088 96.2178 230.557 192.007 228.515 300.8M230.063 297.932C172.857 301.735 120.66 302.014 6.3105 298.935M226.685 300.614C176.267 300.88 126.596 302.419 3.70863 300.286M4.70591 302.344C2.83372 192.082 2.30578 86.5459 0.645508 4.58858M3.96026 300.734C4.06145 201.867 2.18769 99.7054 2.16611 2.44174" stroke="white"/>
<path d="M139.425 61.0888C147.303 64.9347 156.396 75.676 161.548 85.9411C166.699 96.2061 169.589 110.153 170.335 122.679C171.08 135.206 169.314 149.682 166.019 161.099C162.725 172.516 157.005 183.307 150.567 191.182C144.129 199.056 135.664 206.413 127.389 208.346C119.114 210.278 108.744 207.85 100.915 202.777C93.0867 197.703 85.4126 187.944 80.418 177.905C75.4234 167.865 71.73 155.005 70.9476 142.539C70.1653 130.074 72.6407 114.832 75.724 103.111C78.8073 91.3902 82.9676 79.9617 89.4472 72.2128C95.9267 64.4639 104.607 56.8763 114.601 56.6179C124.595 56.3595 142.007 66.1286 149.411 70.6626C156.815 75.1966 159.464 82.9428 159.026 83.8218M119.402 54.8564C127.193 53.9256 137.151 60.4616 144.766 66.7649C152.381 73.0682 160.808 81.856 165.091 92.6761C169.375 103.496 170.155 118.825 170.465 131.685C170.774 144.546 170.976 158.661 166.948 169.839C162.921 181.017 153.52 192.104 146.299 198.753C139.077 205.402 132.102 209.583 123.621 209.733C115.139 209.882 102.93 205.858 95.4101 199.651C87.89 193.444 82.4319 183.257 78.5002 172.492C74.5686 161.726 71.9213 147.749 71.8203 135.059C71.7192 122.37 74.0229 107.608 77.8939 96.3549C81.765 85.1015 88.129 74.2086 95.0466 67.5383C101.964 60.868 115.544 58.2049 119.4 56.3331C123.255 54.4613 118.137 55.1609 118.18 56.3076" stroke="white"/>
<path d="M95.83 30.9838C103.872 31.9271 114.182 39.8975 121.026 48.0687C127.87 56.24 133.229 67.5819 136.896 80.0114C140.564 92.4409 142.899 108.131 143.031 122.646C143.163 137.161 141.876 154.522 137.688 167.102C133.501 179.682 125.305 190.705 117.906 198.126C110.506 205.548 101.771 210.303 93.2919 211.629C84.8128 212.955 74.69 211.473 67.0311 206.081C59.3722 200.688 52.7711 190.447 47.3386 179.275C41.9062 168.103 36.5068 153.031 34.4367 139.049C32.3665 125.066 32.4803 109.12 34.9177 95.3816C37.355 81.6436 42.906 66.8925 49.0607 56.621C55.2154 46.3496 63.1025 37.8482 71.8458 33.7529C80.589 29.6577 95.9429 31.7316 101.52 32.0494C107.098 32.3672 105.346 34.2727 105.311 35.6596M116.143 41.1552C123.899 45.9066 129.854 55.9913 134.081 67.3587C138.309 78.7262 140.811 94.8273 141.506 109.36C142.202 123.892 140.929 141.073 138.254 154.554C135.579 168.036 131.663 181.148 125.457 190.249C119.25 199.35 109.221 205.931 101.016 209.16C92.8109 212.388 84.6288 213.141 76.2253 209.621C67.8219 206.1 57.0405 197.753 50.5955 188.036C44.1505 178.319 40.251 164.243 37.5554 151.319C34.8597 138.394 33.6162 124.286 34.4217 110.49C35.2272 96.6946 37.5418 80.3169 42.3882 68.5454C47.2346 56.7738 55.5917 46.3158 63.5001 39.8607C71.4086 33.4056 81.1977 29.8293 89.839 29.8148C98.4803 29.8002 111.422 37.8446 115.348 39.7733C119.273 41.702 113.703 40.0055 113.392 41.3868" stroke="white"/>
<path d="M144.224 85.2495C151.444 83.9609 159.904 89.0887 166.221 95.2278C172.537 101.367 178.931 111.537 182.122 122.084C185.314 132.631 186.51 146.796 185.37 158.51C184.231 170.224 179.852 182.887 175.286 192.368C170.721 201.848 164.664 211.482 157.977 215.393C151.291 219.305 142.356 218.844 135.169 215.837C127.982 212.831 120.146 206.081 114.854 197.356C109.562 188.631 104.647 175.352 103.419 163.488C102.192 151.624 104.507 137.474 107.489 126.173C110.471 114.872 113.592 102.541 121.309 95.6817C129.026 88.8224 147.073 85.6355 153.79 85.0167C160.506 84.398 161.628 90.5685 161.608 91.969M161.476 91.7908C168.193 95.8408 177.066 106.959 180.871 117.407C184.677 127.854 184.859 142.744 184.309 154.477C183.76 166.211 181.458 178.252 177.575 187.808C173.691 197.365 167.523 206.686 161.01 211.815C154.496 216.943 146.109 220.568 138.493 218.581C130.878 216.594 121.14 208.661 115.318 199.892C109.496 191.122 105.411 177.473 103.562 165.966C101.713 154.459 101.914 141.629 104.226 130.851C106.537 120.072 111.169 108.876 117.43 101.296C123.692 93.7161 134.075 86.9542 141.794 85.3708C149.514 83.7873 160.13 90.6286 163.75 91.7953C167.37 92.9621 164.045 91.0901 163.514 92.3711" stroke="white"/>
<path d="M148.668 120.131C154.778 115.521 163.005 115.529 169.851 118.822C176.698 122.115 185.234 130.16 189.748 139.89C194.262 149.62 196.948 165.137 196.935 177.201C196.922 189.265 193.883 202.95 189.67 212.276C185.457 221.601 178.256 229.708 171.656 233.154C165.057 236.601 156.667 236.298 150.071 232.956C143.476 229.614 136.667 222.105 132.081 213.101C127.495 204.096 122.718 190.787 122.557 178.929C122.396 167.072 126.558 151.807 131.115 141.956C135.671 132.104 146.284 123.598 149.895 119.821C153.506 116.044 152.636 118.652 152.783 119.292M147.409 119.794C153.671 115.312 163.645 117.254 170.246 120.574C176.846 123.895 182.928 130.656 187.01 139.717C191.093 148.778 194.169 163.436 194.743 174.942C195.318 186.447 193.926 199.344 190.459 208.75C186.991 218.155 180.586 227.37 173.936 231.374C167.287 235.377 157.91 235.702 150.562 232.77C143.214 229.837 134.047 222.51 129.846 213.778C125.644 205.047 125.344 192.126 125.353 180.381C125.362 168.636 126.381 153.313 129.899 143.307C133.416 133.3 143.255 123.952 146.459 120.343C149.662 116.733 148.434 120.795 149.121 121.649" stroke="white"/>
<path d="M167.552 165.028C172.926 166.331 180.518 171.898 184.459 179.415C188.4 186.933 190.682 199.722 191.2 210.132C191.718 220.543 190.449 232.92 187.566 241.876C184.682 250.832 178.566 259.363 173.9 263.867C169.235 268.372 164.748 270.752 159.574 268.902C154.4 267.053 146.606 260.378 142.855 252.769C139.105 245.161 137.505 233.451 137.071 223.25C136.636 213.05 137.814 200.682 140.248 191.567C142.682 182.451 146.666 173.031 151.674 168.557C156.682 164.083 166.91 165.053 170.296 164.722C173.682 164.392 172.158 165.588 171.99 166.575M157.794 165.114C162.149 161.699 168.392 163.29 173.107 166.939C177.822 170.588 183.032 178.16 186.085 187.009C189.139 195.858 191.393 209.733 191.427 220.035C191.462 230.336 189.602 240.624 186.29 248.818C182.978 257.011 177.009 266.181 171.556 269.197C166.104 272.213 158.819 271.262 153.574 266.912C148.33 262.562 142.691 252.427 140.087 243.096C137.483 233.765 137.704 221.353 137.949 210.926C138.195 200.499 138.342 188.385 141.562 180.535C144.782 172.685 154.717 166.07 157.272 163.825C159.826 161.581 156.973 166.297 156.886 167.067" stroke="white"/>
<path d="M160.512 139.336C166.016 137.999 173.172 140.593 178.181 146.345C183.191 152.097 188.146 163.739 190.569 173.848C192.993 183.956 194.482 196.719 192.721 206.998C190.961 217.278 185.12 228.432 180.004 235.527C174.888 242.621 168.128 248.921 162.027 249.566C155.926 250.212 148.27 245.365 143.398 239.4C138.525 233.435 134.646 223.763 132.793 213.777C130.94 203.79 130.521 190.187 132.279 179.484C134.038 168.781 138.493 156.484 143.343 149.56C148.194 142.635 158.141 139.813 161.382 137.936C164.624 136.059 162.715 137.248 162.791 138.297M169.489 138.335C175.055 140.359 180.687 149.819 184.473 158.058C188.26 166.296 191.519 177.185 192.208 187.768C192.898 198.35 191.322 211.861 188.61 221.553C185.897 231.244 181.711 241.442 175.932 245.916C170.154 250.39 160.3 250.786 153.938 248.398C147.576 246.01 141.756 239.993 137.76 231.589C133.765 223.184 130.249 208.994 129.966 197.973C129.684 186.951 132.861 174.772 136.067 165.459C139.272 156.145 144.095 146.306 149.198 142.091C154.302 137.876 163.392 140.686 166.689 140.169C169.985 139.652 168.756 138.318 168.976 138.99" stroke="white"/>
</svg>
