<svg width="111" height="111" viewBox="0 0 111 111" fill="none" xmlns="http://www.w3.org/2000/svg">
<path d="M48 0H63V111H48V0Z" fill="#FFF016"/>
<path d="M0 63V48H111V63H0Z" fill="#FFF016"/>
<path d="M21.5589 100.047L10.9523 89.4408L89.4411 10.9519L100.048 21.5585L21.5589 100.047Z" fill="#FFF016"/>
<path d="M6.85065 83.245L1.23155 69.3372L104.149 27.7559L109.768 41.6637L6.85065 83.245Z" fill="#FFF016"/>
<path d="M109.768 69.3373L104.149 83.2451L1.23144 41.6638L6.85054 27.756L109.768 69.3373Z" fill="#FFF016"/>
<path d="M69.3359 1.23242L83.2437 6.85152L41.6624 109.769L27.7546 104.15L69.3359 1.23242Z" fill="#FFF016"/>
<path d="M27.7547 6.85175L41.6625 1.23265L83.2438 104.15L69.336 109.769L27.7547 6.85175Z" fill="#FFF016"/>
<path d="M100.048 89.4407L89.4414 100.047L10.9525 21.5585L21.5591 10.9519L100.048 89.4407Z" fill="#FFF016"/>
</svg>
