<svg width="111" height="111" viewBox="0 0 111 111" fill="none" xmlns="http://www.w3.org/2000/svg">
<path d="M48 0H63V111H48V0Z" fill="#FFF016"/>
<path d="M0 63V48H111V63H0Z" fill="#FFF016"/>
<path d="M21.5589 100.047L10.9523 89.4408L89.4411 10.9519L100.048 21.5585L21.5589 100.047Z" fill="#FFF016"/>
<path d="M6.85065 83.245L1.23155 69.3372L104.149 27.7559L109.768 41.6637L6.85065 83.245Z" fill="#FFF016"/>
<path d="M109.768 69.3373L104.149 83.2451L1.23144 41.6638L6.85054 27.756L109.768 69.3373Z" fill="#FFF016"/>
<path d="M69.3359 1.23242L83.2437 6.85152L41.6624 109.769L27.7546 104.15L69.3359 1.23242Z" fill="#FFF016"/>
<path d="M27.7547 6.85175L41.6625 1.23265L83.2438 104.15L69.336 109.769L27.7547 6.85175Z" fill="#FFF016"/>
<path d="M100.048 89.4407L89.4414 100.047L10.9525 21.5585L21.5591 10.9519L100.048 89.4407Z" fill="#FFF016"/>
<path d="M46.3481 53.4964C48.8166 58.3477 52.7936 62.3247 57.6449 64.7932L61.4162 61.0219C61.8961 60.5419 62.5647 60.4048 63.1647 60.5933C65.0846 61.2276 67.1417 61.5704 69.2845 61.5704C69.7391 61.5704 70.1751 61.7511 70.4966 62.0725C70.8181 62.394 70.9987 62.83 70.9987 63.2847V69.2845C70.9987 69.7391 70.8181 70.1751 70.4966 70.4966C70.1751 70.8181 69.7391 70.9987 69.2845 70.9987C61.5556 70.9987 54.1432 67.9284 48.678 62.4632C43.2129 56.9981 40.1426 49.5857 40.1426 41.8568C40.1426 41.4022 40.3232 40.9661 40.6447 40.6447C40.9661 40.3232 41.4022 40.1426 41.8568 40.1426H47.8566C48.3113 40.1426 48.7473 40.3232 49.0688 40.6447C49.3902 40.9661 49.5708 41.4022 49.5708 41.8568C49.5708 43.9996 49.9137 46.0567 50.548 47.9766C50.7365 48.5766 50.5994 49.2451 50.1194 49.7251L46.3481 53.4964Z" fill="black"/>
</svg>
