<svg width="1841" height="1317" viewBox="0 0 1841 1317" fill="none" xmlns="http://www.w3.org/2000/svg">
<path d="M1.44833 -113.606C9.46854 -121.753 16.1755 -128.554 29.2931 -136.038M4.26635 -115.829C11.5886 -124.807 18.9962 -131.256 27.566 -138.079M1 -109.513C16.601 -120.572 32.8465 -132.431 53.1682 -152.291M5.7363 -110.576C23.078 -125.066 43.9075 -139.845 50.3567 -150.048M6.89607 -103.202C29.2366 -118.879 53.0932 -141.615 67.3662 -149.707M9.96515 -103.521C28.1734 -121.391 48.2974 -137.302 66.8272 -153.186M9.53227 -98.5896C39.5578 -119.747 62.6666 -141.361 75.248 -157.161M12.5897 -99.4751C25.7289 -110.512 40.5365 -120.964 78.2328 -155.346M16.3936 -91.8345C36.3088 -105.806 49.8316 -121.283 90.5582 -154.316M17.3682 -93.2343C35.4061 -107.694 50.9176 -122.052 88.1152 -155.356M23.1301 -91.3582C40.2742 -104.474 65.3614 -124.098 103.381 -159.444M24.9229 -89.3252C52.0889 -115.23 79.9491 -137.734 101.723 -157.11M29.1817 -88.0226C58.1049 -107.394 84.7311 -130.156 110.453 -156.125M29.6987 -85.2848C54.1574 -107.833 76.9985 -127.247 113.563 -156.394M32.3684 -84.5227C62.7251 -108.052 97.0346 -132.368 128.002 -158.952M33.6417 -80.9336C62.7537 -106.045 90.7458 -129.123 125.657 -159.459M42.2893 -80.8147C79.925 -108.669 117.075 -145.055 134.423 -158.883M41.6361 -77.3106C65.7524 -99.6203 91.6616 -122.008 136.622 -161.055M46.4226 -71.9821C80.4698 -101.064 108.944 -123.608 149.649 -163.725M44.6934 -73.8648C79.1121 -103.027 109.756 -130.018 148.358 -161.28M51.2718 -69.5925C96.8277 -105.187 133.992 -141.734 163.152 -159.987M53.4863 -70.8898C92.631 -103.468 126.832 -135.497 158.744 -161.73M58.2136 -70.7314C85.2506 -93.6559 118.672 -114.702 170.155 -161.625M58.9745 -68.3351C94.5464 -97.0471 132.003 -127.724 170.701 -162.665M70.4651 -66.2655C108.753 -102.28 144.651 -133.757 184.916 -160.943M65.159 -64.2725C101.404 -96.1807 139.587 -126.251 179.861 -162.172M76.2439 -63.6527C109.557 -92.0949 145.884 -122.851 188.545 -164.724M73.4731 -62.1494C106.612 -91.9411 140.568 -118.473 191.032 -162.975M84.4471 -59.4998C111.376 -88.0542 135.314 -110.86 200.805 -165.565M79.4663 -60.9602C108.179 -82.9856 131.116 -103.702 203.941 -165.392M87.3578 -55.0914C129.252 -96.0014 172.554 -128.507 214.16 -167.682M88.3538 -57.091C115.845 -81.6939 141.859 -104.422 215.687 -164.908M98.5079 -53.9738C128.728 -80.3597 159.708 -109.327 225.376 -167.517M96.1188 -54.5446C132.586 -87.8102 170.794 -118.505 225.064 -167.566M104.069 -50.7604C139.367 -82.7241 175.314 -113.409 236.811 -167.504M103.521 -52.1272C129.424 -76.4502 157.05 -100.602 235.018 -165.044M114.49 -49.6441C155.055 -87.6942 199.287 -130.009 242.956 -163.129M111.717 -51.6071C163.602 -97.1359 217.383 -141.207 247.217 -166.027M114.173 -49.7734C159.6 -83.2035 199.902 -114.864 259.257 -164.064M116.93 -46.381C150.94 -75.3629 181.276 -101.833 256.321 -165.507M122.948 -43.7353C158.353 -78.6707 200.75 -108.24 268.71 -166.374M125.175 -43.5238C177.017 -88.9787 231.01 -134.119 267.818 -165.681M129.136 -43.6262C181.669 -85.1224 232.204 -128.399 274.457 -163.651M131.813 -42.0433C191.282 -91.5845 249.726 -140.353 278.533 -167.595M141.262 -40.4996C184.586 -79.6207 235.435 -120.383 285.288 -163.134M137.479 -40.3859C174.959 -69.2591 210.785 -101.113 285.712 -165.823M148.792 -40.5043C188.847 -74.1543 233.407 -116.476 292.782 -166.814M148.416 -39.1682C195.035 -81.1518 243.592 -122.674 295.053 -165.868M156.259 -32.9339C203.168 -76.0142 247.993 -111.429 310.359 -168M156.463 -34.3505C195.708 -71.2691 237.433 -105.858 309.255 -165.76M161.22 -30.479C194.974 -62.7558 225.917 -89.3699 313.558 -165.816M161.982 -32.7032C222.584 -82.9638 282.118 -135.888 317.844 -165.491M170.673 -27.2286C208.025 -64.0128 244.413 -91.8544 329.614 -166.067M168.866 -29.2521C224.568 -79.7162 284.991 -129.111 328.631 -163.567M176.872 -28C228.002 -69.3618 276.383 -109.358 332.933 -161.313M177.203 -29.6552C233.699 -76.5639 290.136 -122.269 335.698 -163.631M184.269 -28.1715C227.043 -66.7636 278.298 -103.928 343.338 -163.604M184.125 -26.3563C226.959 -61.6081 268.511 -100.43 345.957 -163.571M196.313 -21.1703C242.981 -67.1825 289.612 -109.501 357.173 -161.919M191.68 -22.5758C255.493 -79.106 317.671 -132.288 352.889 -161.744M197.104 -20.9293C261.974 -72.494 321.382 -128.421 363.598 -162.404M202.041 -20.2318C242.463 -59.6745 283.719 -95.7103 364.44 -160.358M207.579 -17.8483C261.318 -64.1087 314.14 -108.373 374.98 -159.233M207.893 -20.3025C249.214 -57.6084 293.993 -93.0971 372.008 -159.591M218.169 -16.4203C281.963 -74.6998 349.458 -127.916 381.898 -158.864M214.565 -15.8636C253.149 -46.5075 286.397 -76.3831 381.838 -159.287M227.001 -15.1866C267.04 -51.1748 310.705 -93.344 394.266 -161.017M225.004 -16.1526C292.863 -73.1509 358.731 -129.929 392.933 -157.99M232.343 -10.2495C286.122 -64.9869 348.815 -112.096 400.108 -155.185M230.919 -12.5441C275.761 -52.7718 326.147 -92.4655 402.172 -158.074M242.407 -11.1867C294.268 -62.0133 350.728 -109.007 412.764 -154.314M241.048 -11.2399C305.476 -65.2453 366.553 -117.894 408.785 -156.763M249.899 -9.41075C311.17 -63.2985 380.524 -122.023 420.012 -153.814M245.508 -8.9694C297.251 -51.5358 351.039 -95.0963 421.072 -157.341M257.159 -9.15259C303.701 -49.0117 358.895 -93.6521 431.428 -154.996M254.063 -7.41795C296.528 -40.8473 335.634 -76.3402 428.413 -155.984M263.974 -2.02073C323.603 -60.6009 394.978 -116.375 441.673 -154.378M260.796 -5.49536C300.338 -38.0941 337.951 -69.0655 438.938 -154.245M269.499 -0.82862C333.708 -57.0204 394.238 -111.125 445.718 -154.707M270.939 -1.81957C333.392 -55.0573 394.614 -106.245 445.725 -154.576M274.533 0.711105C328.228 -46.172 384.083 -90.9416 459.823 -152.191M279.744 1.33624C343.819 -56.0245 408.665 -109.035 458.227 -152.952M286.157 4.42988C324.184 -32.9938 368.515 -73.4843 469.348 -152.936M286.333 1.05409C344.388 -45.7713 401.354 -96.6074 467.796 -152.627M294.748 2.40784C361.565 -50.0894 419.78 -102.746 477.494 -153.254M295.089 4.9647C326.275 -25.6235 364.387 -57.9052 473.834 -152.015M298.567 6.39814C361.127 -43.1305 416.097 -91.0574 483.94 -146.492M301.426 7.52117C356.888 -42.3767 414.899 -92.127 482.92 -149.806M309.427 8.49462C363.001 -39.805 419.49 -90.2501 490.34 -145.765M308.223 7.50644C358.735 -34.5679 409.779 -76.8118 492.321 -147.482M319.5 11.7809C353.21 -22.5551 388.183 -52.3876 501.085 -146.997M316.398 10.8763C354.859 -22.8732 395.233 -57.4914 500.233 -144.887M320.703 14.5764C377.305 -33.7656 436.196 -81.2026 506.938 -145.871M324.523 12.3185C376.03 -29.3353 430.203 -75.7975 511.553 -146.819M328.962 17.4999C380.019 -28.6305 439.24 -71.2917 519.867 -146.287M332.047 15.983C403.091 -49.6065 480.706 -113.571 517.037 -144.075M337.853 16.4836C399.213 -30.376 457.184 -80.5118 526.99 -144.286M339.589 18.2889C408.586 -39.3457 473.722 -97.2186 527.039 -141.959M344.604 20.465C422.534 -39.7838 493.131 -107.091 535.749 -138.192M346.821 21.3791C416.969 -40.8096 492.779 -102.799 533.768 -140.707M352.039 24.3103C409.747 -24.4226 469.07 -73.949 546.723 -141.846M355.938 22.5586C416.478 -30.7858 483.5 -86.2363 545.415 -138.127M361.293 21.6274C403.521 -11.5697 445.89 -47.1683 552.398 -139.156M362.672 24.1926C426.964 -29.0132 488.621 -81.8613 552.538 -139.906M371.296 29.7054C442.76 -35.891 515.759 -93.0599 558.788 -137.499M368.505 26.1345C417.712 -15.2063 462.611 -53.867 563.245 -137.674M375.326 30.4796C444.745 -31.004 514.923 -90.2688 573.437 -134.846M378.69 29.6942C418.872 -4.91898 459.649 -41.728 571.949 -134.812M383.434 30.8357C432.333 -14.1822 486.804 -54.4211 576.423 -136.698M386.056 31.854C456.671 -31.797 529.455 -93.4772 578.192 -133.675M390.647 33.1785C431.723 0.0674084 471.754 -35.4942 590.899 -131.162M393.681 34.6845C453.671 -18.7365 514.225 -71.6039 587.647 -131.7M398.158 35.1241C476.563 -27.2514 557.276 -93.7329 593.764 -132.161M400.466 37.9877C443.6 1.39429 484.691 -36.8578 593.802 -131.789M409.522 36.9743C459.495 -3.36191 507.027 -50.3031 601.527 -125.211M407.083 38.7714C483.158 -28.6723 557.239 -92.1683 604.65 -128.797M414.147 40.9495C452.606 6.02317 496.458 -29.7946 614.035 -125.99M412.276 40.9753C472.619 -9.1955 533.436 -60.9187 611.472 -126.812M423.938 45.8554C462.068 6.87167 505.441 -24.1399 618.996 -125.124M421.209 43.9856C487.894 -13.4374 557.294 -71.7931 620.844 -126.137M428.959 49.7606C474.206 8.99437 513.331 -24.9383 622.883 -122.256M427.344 47.7146C483.975 3.91792 535.069 -44.3332 627.896 -122.426M436.907 49.4558C503.715 -13.2193 578.528 -74.5929 631.588 -118.291M435.304 49.0133C496.701 -1.71645 560.662 -55.9679 635.516 -121.334M440.681 52.6854C524.166 -17.091 603.798 -85.0601 638.694 -118.568M444.21 52.6532C521.964 -16.0611 602.307 -83.7026 641.801 -118.615M450.423 58.3782C532.101 -14.3576 607.207 -78.6258 651.598 -117.905M448.395 56.2025C522.32 -7.06366 598.119 -69.6266 651.438 -117.758M459.79 57.972C521.167 0.287908 588.575 -53.7213 655.422 -114.561M454.728 58.6632C502.447 17.218 550.724 -22.4813 660.193 -113.136M466.693 59.5931C508.504 24.4 550.392 -12.6184 669.077 -113.912M463.826 61.9237C531.014 5.26191 594.245 -50.1074 664.234 -112.788M471.953 66.1029C512.56 25.4316 557.55 -7.8796 676.439 -109.298M471.899 64.3036C531.258 10.314 594.742 -40.4268 676.136 -110.164M475.351 66.9318C534.863 11.7294 596.779 -40.5529 684.323 -107.683M476.165 66.9625C518.812 27.9729 559.925 -7.70884 681.629 -107.188M487.075 67.818C559.037 9.20461 630.07 -50.7997 686.194 -106.461M483.513 68.5951C563.37 2.65222 643.652 -65.3752 689.185 -106.29M493.924 73.0275C538.641 28.9637 590.476 -12.5049 697.141 -102.411M493.912 70.803C535.948 33.5373 581.441 -5.25926 697.551 -101.349M500.414 72.7561C559.145 20.6586 624.338 -37.7998 700.562 -97.3877M500.655 74.4249C579.288 4.23516 657.883 -61.1614 700.255 -98.8459M506.73 77.8717C584.361 7.51619 666.455 -56.2689 707.972 -93.2474M508.392 77.0091C555.829 37.5437 599.562 -2.89626 709.464 -94.8186M512.681 79.2096C576.832 29.0738 637.551 -22.7302 715.328 -95.3739M512.203 78.9463C571.137 31.1557 632.371 -21.5099 716.177 -91.6696M517.061 82.3915C588.089 28.5836 645.637 -24.1522 724.24 -88.5646M520.596 81.4036C602.018 14.7128 680.169 -53.1012 723.18 -88.9923M529.105 84.1588C609.268 19.2965 687.058 -51.6222 733.488 -89.4103M524.772 87.1728C601.434 17.3232 683.031 -49.1151 729.185 -86.6214M534.209 87.9692C600.619 33.6837 663.285 -26.2776 735.898 -82.595M535.596 88.1492C587.783 39.7111 647.636 -9.6151 736.33 -85.124M537.193 93.0411C588.024 54.6619 630.543 12.5646 748.452 -84.8269M542.58 92.3683C589.462 48.2547 640.459 9.18883 746.273 -82.2169M545.907 95.9443C626.349 24.6527 709.917 -45.0337 752.128 -76.2313M546.162 94.9386C590.929 57.6405 632.935 19.7668 749.244 -77.5239M554.669 98.2995C612.581 51.3271 672.164 -2.71339 753.6 -70.7738M552.627 98.9193C628.659 33.708 702.927 -28.6976 755.27 -72.6193M558.38 98.8241C620.272 51.4396 672.626 1.51445 759.98 -68.713M562.385 101.745C625.206 46.2638 684.105 -7.60069 759.567 -71.0219M565.286 101.813C620.648 60.2891 677.021 11.5404 766.539 -64.9915M567.984 102.354C643.352 40.4522 716.812 -21.7587 763.861 -63.8521M576.783 105.186C628.289 57.5876 687.653 8.33132 773.635 -60.1263M573.742 105.992C627.404 61.5103 682.298 15.0238 768.838 -60.4771M579.817 111.75C637.482 64.5227 692.423 14.4789 777.187 -57.6493M580.877 111.483C652.16 49.5823 720.373 -8.84596 773.712 -53.8373M584.917 111.659C653.31 56.5109 722.965 -0.363747 778.642 -51.5368M586.491 114.699C648.179 62.637 708.029 10.5229 778.272 -49.9927M593.185 114.896C644.103 76.0726 698.808 33.4133 787.289 -42.6215M594.411 117.527C667.171 55.6217 740.463 -10.6406 783.248 -46.5183M596.294 122.971C671.564 58.4592 740.056 2.10445 789.363 -40.9794M598.725 121.748C652.007 78.0609 699.591 36.452 787.065 -40.7297M602.616 121.846C657.472 75.9994 717.162 30.0178 791.93 -34.3292M604.42 124.01C680.147 61.3858 756.844 -1.92447 791.068 -36.4435M609.358 130.002C657.842 88.6316 705.154 53.6866 798.733 -31.8364M612.029 126.726C668.188 79.4882 727.117 30.2581 797.072 -31.8422M619.154 130.474C680.548 76.9246 743.919 27.4156 806.902 -26.3644M620.142 131.612C669.358 87.2576 723.466 40.6159 803.187 -26.2779M626.239 133.033C676.492 88.1626 726.489 42.8027 805.551 -23.0188M623.394 134.442C676.623 89.9413 729.583 44.3663 808.934 -23.0799M633.439 137.566C667.823 104.078 707.664 72.7682 813.701 -18.7486M632.663 137.066C695.976 85.8866 755.071 33.456 813.716 -18.4066M634.312 141.849C696.509 92.0093 753.513 47.1195 819.445 -15.0786M639.092 140.153C708.146 80.688 781.056 18.7918 817.597 -13.2591M639.872 142.346C683.237 106.598 724.592 75.0482 820.429 -7.30499M641.712 144.699C707.787 92.5368 770.007 37.4499 822.067 -7.83843M652.234 148.681C710.551 95.6886 773.826 43.5216 823.532 -3.66653M649.462 149.704C686.829 117.621 723.623 87.1323 826.621 -2.31725M654.852 151.218C715.616 105.639 766.36 57.3515 827.855 3.24081M655.211 151.948C708.835 101.875 765.465 54.5076 830.276 2.62959M660.93 157.341C713.278 105.919 769.081 59.1334 832.041 9.5234M662.601 157.018C699.42 125.008 741.131 91.5141 835.881 8.13487M666.541 160.233C718.851 115.441 771.389 72.7866 843.692 11.1789M668.353 159.848C709.069 123.448 749.498 90.1704 839.978 10.2022M671.135 164.978C714.526 131.961 755.047 94.9734 847.98 15.6741M673.016 163.839C726.478 120.817 776.23 75.9758 847.145 15.7031M681.173 163.522C741.01 118.19 794.521 62.7738 847.998 20.6043M678.619 165.373C731.146 123.157 782.521 76.7305 849.809 21.1908M683.848 167.812C731.005 130.035 768.616 96.0717 858.493 27.1805M686.693 170.679C738.698 125.071 790.864 80.8775 854.463 24.3314M691.728 175.169C753.818 118.143 818.973 63.1985 863.419 27.4416M691.875 172.496C754.143 118.934 813.89 65.7093 861.453 30.6027M695.011 178.154C754.456 129.428 808.969 85.3088 867.539 34.4929M698.647 177.187C744.221 137.359 790.234 99.133 864.266 34.4361M701.18 180.362C740.654 146.32 787.356 109.065 867.553 39.0206M701.559 182.537C751.005 140.191 798.908 100.791 869.162 39.3949M711.746 183.99C759.542 144.593 810.203 99.0433 874.421 42.9384M707.482 187.1C771.625 136.166 830.432 83.9252 873.851 43.7235M712.215 189.705C767.662 144.286 815.263 97.6638 878.756 48.2726M712.889 190.766C778.376 135.861 844.699 77.9533 879.076 48.9618M718.399 191.637C764.725 158.862 803.38 125.245 886.485 52.6925M720.869 193.9C774.698 145.431 828.144 100.701 883.046 54.1279M725.744 200.32C774.005 156.149 825.111 107.831 888.284 62.1722M725.604 199.052C762.007 162.806 803.727 127.763 886.775 59.1866M727.679 202.916C788.908 155.653 847.003 105.018 889.43 66.9641M729.001 202.607C763.389 174.401 800.101 144.352 893.107 63.4369M736.449 207.744C777.559 176.652 809.392 142.757 898.543 69.2254M736.108 205.746C783.497 164.958 832.702 125.421 893.474 69.0349M737.784 210.291C795.972 165.662 852.366 117.773 903.559 73.6339M740.471 211.019C784.516 174.391 824.726 136.658 899.231 76.2394M742.619 217.032C787.41 176.502 837.405 137.999 903.824 80.795M744.698 216.059C793.105 174.393 841.623 133.269 904.585 78.769M750.732 218.437C798.526 177.487 854.02 131.258 911.417 84.6512M749.481 220.54C800.3 177.293 849.795 133.363 910.319 85.7772M757.309 223.352C803.814 183.485 845.65 142.836 913.732 91.1675M754.247 225.366C804.889 182.602 852.885 142.618 911.145 90.6294M763.563 228.099C798.466 198.589 830.53 168.557 918.17 98.2667M761.455 227.941C800.546 197.985 837.76 162.58 916.404 96.7463M763.773 232.526C817.6 186.324 875.186 139.273 924.387 99.1454M766.226 234.16C801.819 203.181 837.825 171.894 919.578 99.7054M770.871 237.012C804.832 203.066 840.696 174.255 925.985 106.267M771.388 238.827C826.558 190.273 881.142 140.323 925.013 105.777M772.84 244.641C825.024 200.6 880.043 152.161 929.156 112.73M773.367 241.595C828.209 196.323 880.673 153.184 930.601 111.515M776.976 247.434C820.457 211 858.973 179.795 932.574 118.948M778.272 248.746C817.164 211.983 857.482 178.997 934.199 117.08M783.585 253.604C821.553 224.011 852.753 191.895 933.426 122.643M785.005 253.435C843.672 200.979 904.297 150.039 936.921 121.442M787.503 256.432C837.676 215.873 886.293 174.333 937.547 127.139M788.319 257.413C843.274 212.268 896.053 165.598 940.221 127.516M794.603 262.52C833.376 228.451 877.967 190.598 942.451 131.825M793.061 263.152C853.403 210.304 910.314 159.289 944.518 134.07M796.424 265.812C844.298 224.143 892.903 186.715 946.267 142.551M797.443 267.163C847.769 222.932 898.191 180.876 947.933 139.954M801.824 274.83C849.925 230.913 908.471 186.119 950.644 145.354M801.421 273.425C848.116 231.282 898.446 190.982 951.96 145.064M804.566 278.161C864.219 231.827 914.184 187.006 956.076 149.63M807.055 278.271C845.159 247.219 878.118 214.69 953.84 151.536M809.317 282.196C861.599 238.9 916.174 189.016 958.948 158.808M810.939 284.442C845.874 255.347 878.247 226.34 955.726 158.121M816.587 290.361C863.085 250.294 906.951 209.653 955.711 165.94M816.683 287.664C866.122 244.864 917.689 202.368 960.805 165.385M821.989 294.22C870.922 249.735 928.15 203.179 964.809 169.154M819.78 293.379C862.647 257.98 903.871 221.999 961.411 172.361M819.983 302.382C858.382 268.143 890.42 238.702 968.424 175.913M820.347 298.373C867.31 259.704 910.067 222.176 967.477 178.041M828.85 307.18C856.93 275.895 889.647 249.143 968.715 181.655M824.69 305.3C860.22 276.689 896.171 244.13 972.2 180.352M825.242 313.577C887.624 264.955 943.393 214.34 972.064 186.121M829.165 310.625C878.323 270.433 928.308 229.69 972.909 187.448M829.301 314.574C867.049 288.334 905.842 258.198 970.555 195.856M831.848 316.499C875.87 281.741 920.971 246.324 975.796 196.176M833.457 323.982C882.12 284.064 927.714 244.312 977.912 203.912M834.614 323.562C872.052 292.172 908.797 259.758 976.109 201.49M842.819 330.492C879.449 295.415 916.959 258.604 978.132 211.158M838.821 327.264C880.64 293.354 922.075 257.187 980.204 208.839M840.79 334.128C872.56 312.343 900.817 285.696 982.752 216.048M841.896 334.716C889.136 293.406 938.701 254.546 980.084 216.052M846.146 340.774C902.541 294.249 957.326 248.945 984.244 224.543M842.355 342.949C890.562 302.238 937.9 264.323 982.518 222.951M850.879 346.269C894.049 307.608 938.208 267.886 986.259 231.202M845.196 347.53C895.837 306.779 946.916 263.232 985.267 229.079M848.166 354.496C884.357 322.923 921.13 292.036 990.09 236.46M850.701 356.283C904.265 310.581 957.139 264.13 987.09 236.618M848.897 360.727C905.973 317.257 959.472 270.848 988.615 242.94M851.624 361.009C882.231 338.922 911.388 312.963 988.778 244.582M849.287 367.826C882.352 343.787 915.965 316.487 991.317 253.603M852.736 370.403C885.534 344.181 914.39 318.744 987.937 253.964M856.908 375.454C896.634 336.466 948.855 296.341 992.21 262.681M852.708 378.214C897.233 340.11 941.74 303.339 989.755 260.408M851.502 384.572C886.251 361.395 924.944 328.038 987.308 271.605M852.901 387.136C890.668 357.485 924.796 327.076 990.972 269.622M858.752 394.775C902.375 353.405 943.436 317.007 989.157 278.102M855.09 392.842C902.571 353.502 944.356 316.085 991.312 278.938M854.619 402.112C902.702 361.822 956.099 322.699 994.107 283.795M859.026 399.669C896.373 368.56 932.898 337.222 990.725 287.22M857.84 409.437C902.839 370.599 955.277 325.08 993.483 295.044M860.852 408.831C893.218 378.293 930.21 348.276 992.982 293.068M857.802 414.371C905.502 381.779 944.188 346.398 991.997 301.038M861.841 414.638C905.783 376.293 954.313 335.343 994.03 303.401M861.359 425.805C898.427 388.713 942.661 354.408 988.93 311.406M862.092 425.157C912.493 380.067 963.305 337.847 992.67 311.248M856.747 434.018C895.307 409.727 921.133 382.219 994.275 323.86M859.49 433.248C907.786 392.958 955.892 351.956 992.056 321.43M862.114 440.525C900.717 403.051 944.701 369.302 994.027 331.805M859.372 441.829C911.831 399.557 961.365 355.37 989.567 330.093M863.068 454.516C886.582 428.093 910.853 409.931 991.727 343.678M858.203 453.301C902.295 416.531 944.996 378.225 987.877 341.745M863.521 458.818C888.086 437.08 916.587 413.152 982.566 353.769M861.27 459.052C889.672 437.935 916.424 413.442 986.51 353.284M863.722 464.578C898.621 433.65 934.936 402.66 982.16 364.564M866.259 466.305C888.418 445.452 910.867 422.316 981.015 365.026M858.495 475.815C891.865 451.907 921.019 421.619 983.48 373.072M861.119 476.816C896.27 446.827 929.523 415.29 981.082 375.532M859.686 489.06C893.37 455.645 925.656 431.855 978.701 387.658M861.076 485.904C890.84 459.197 922.451 434.111 976.181 387.596M858.403 495.639C894.875 466.214 930.331 439.96 974.405 394.925M857.851 499.401C885.675 474.11 913.753 450.274 976.549 398.163M848.048 513.96C882.513 482.569 914.124 455.155 968.509 411.121M850.483 512.692C889.464 478.853 925.521 444.505 968.396 411.926M847.746 523.359C888.846 494.303 924.435 455.305 963.752 426.231M847.685 524.062C873.566 500.676 901.007 479.25 963.906 424.503M842.767 541.31C876.483 510.125 913.466 474.119 953.651 441.462M839.344 538.689C880.678 504.887 917.205 471.556 956.421 439.384M835.807 552.083C861.647 523.819 890.904 501.864 946.534 454.224M835.849 550.036C874.048 519.731 913.313 487.324 948.664 454.53M835.011 566.477C869.398 532.989 906.797 504.385 942.662 471.239M831.107 563.737C870.275 531.179 907.184 501.73 942.063 470.61M826.273 578.692C859.465 545.32 899.212 515.006 932.831 483.743M823.858 577.776C848.086 557.153 873.425 533.725 935.7 482.595M814.513 593.652C847.634 564.717 879.632 536.434 938.161 489.157M814.678 595.36C859.022 559.437 900.995 521.719 939.24 489.237M812.001 610.36C846.036 575.336 884.45 545.336 924.602 511.004M808.467 608.065C853.68 571.567 901.834 533.052 926.461 508.038M807.908 616.877C830.182 597.082 856.302 578.768 913.318 525.285M808.948 617.831C849.989 584.464 888.546 548.788 917.088 526.459M803.733 631.506C836.893 597.186 875.822 570.614 895.104 552.373M807.376 628.922C831.405 608.563 852.815 588.996 894.704 553.64M802.477 646.959C819.791 624.563 838.225 608.77 875.087 575.857M799.052 644.49C827.391 619.453 856.155 595.236 879.999 575.731M798.372 654.337C808.07 643.533 824.991 628.887 863.563 597.653M798.682 653.042C815.335 639.61 831.74 623.948 860.832 599.962M797.839 665.305C812.438 649.941 830.684 638.348 857.074 614.231M796.933 663.604C810.632 652.456 823.937 640.179 857.747 611.134M800.185 673.341C815.019 657.908 824.991 648.297 847.496 626.086M799.585 671.25C808.08 661.099 820.089 653.217 850.944 626.528M796.072 677.71C815.934 663.184 833.446 649.414 845.587 634.958M799.56 679.871C812.813 666.964 827.417 657.945 848.828 637.603M801.677 684.215C820.003 671.999 838.837 656.276 848.878 644.423M800.063 688.287C814.616 674.491 829.423 659.505 845.905 645.787M804.161 695.337C816.98 682.835 834.29 670.931 849.974 656.285M799.852 694.901C811.921 685.354 822.361 675.561 848.538 653.544M802.743 700.589C821.097 687.859 843.547 669.294 852.332 665.149M804.714 701.674C815.885 690.452 829.554 680.912 849.847 664.192M804.675 713.844C815.956 698.961 837.406 681.731 856.851 665.26M803.04 711.962C821.123 697.565 836.315 682.004 855.655 669.103M808.541 719.823C813.553 708.027 827.024 697.634 858.635 672.855M805.237 716.806C823.515 702.968 842.347 686.723 855.379 676.212M806.508 725.576C826.198 710.803 839.108 699.152 854.878 680.394M806.498 723.42C819.82 714.627 832.574 703.137 856.798 681.679M814.69 727.703C830.787 713.053 847.093 697.595 857.455 685.636M810.051 729.165C823.013 720.223 836.686 707.231 859.74 687.951M816.757 734.435C827.653 719.735 848.376 706.449 867.953 695.591M813.238 736.929C826.927 726.11 838.604 715.888 862.658 694.106M813.412 742.016C824.674 732.473 838.106 724.362 871.482 700.586M817.098 743.887C837.805 725.716 855.871 708.776 869.462 699.012M814.597 750.518C831.712 740.358 840.676 729.087 866.789 706.8M817.428 749.982C830.906 742.428 839.318 730.563 869.922 706.556M821.215 757.11C832.624 746.499 847.982 738.759 874.676 708.866M820.919 758.606C836.641 744.073 847.966 733.934 876.273 710.394M826.789 761.613C837.536 748.145 851.871 740.819 878.202 718.806M826.263 761.264C840.629 748.102 856.624 737.384 880.831 717.932M830.236 765.746C845.217 748.269 869.008 731.335 883.795 720.854M830.219 767.925C847.774 749.679 868.508 734.078 884.015 722.803M833.357 776.793C851.065 760.065 871.008 740.097 891.138 723.806M832.628 775.536C848.04 763.108 860.994 748.621 886.713 727.7M839.429 777.978C856.877 757.703 879.443 739.28 895.359 733.244M837.457 779.388C856.477 763.892 875.791 744.71 894.124 732.194M843.021 786.816C861.198 771.662 880.741 750.808 900.5 737.223M840.103 785.556C859.995 768.388 879.913 752.81 895.45 736.835M840.633 793.327C863.458 778.05 874.445 762.943 901.411 740.916M842.29 789.764C866.708 771.843 887.812 752.171 902.838 739.755M847.358 794.906C868.096 783.818 880.519 767.044 907.388 748.302M845.79 796.7C865.258 779.72 885.171 764.632 906.18 746.549M851.718 799.689C861.646 788.783 876.47 779.114 908.157 749.962M850.35 800.797C871.45 785.935 889.518 769.76 910.769 750.533M854.491 806.74C875.849 787.001 903.51 770.586 916.88 753.28M855.02 805.569C876.483 789.078 899.099 770.812 918.003 753.343M858.086 814.341C882.07 791.87 902.428 772.964 918.736 759.277M859.869 811.72C881.683 792.856 903.172 777.257 919.846 759.185M860.841 815.157C884.309 798.126 911.996 775.849 925.122 763.442M862.876 816.496C878.727 805.743 891.871 793.954 927.248 764.259M868.598 820.967C879.197 810.757 895.52 797.11 933.177 769.02M867.561 821.785C890.076 801.768 913.437 783.087 930.064 769.112M872.931 825.654C897.399 810.452 918.208 791.589 934.312 772.802M873.355 827.329C887.756 816.638 900.022 803.792 938.278 770.34M877.574 829.522C902.313 810 929.067 791.798 945.59 777.433M876.459 831.557C895.594 818.556 909.448 804.8 942.895 774.844M883.083 838.086C893.725 822.986 905.559 812.696 952.597 777.411M883.211 837.381C907.701 816.154 932.68 796.052 951.399 777.977M882.862 844.563C909.264 818.535 941.052 793.312 950.748 784.629M886.745 842.3C911.705 820.52 934.563 800.783 955.31 784.453M891.527 847.631C912.16 829.228 936.649 809.444 956.403 787.929M890.067 845.765C910.446 829.32 934.532 811.719 959.693 789.051M895.499 849.112C923.901 832.562 945.416 806.938 962.152 790.127M895.286 851.541C922.442 829.443 945.3 808.368 966.921 791.989M900.185 857.658C920.201 842.312 933.536 824.968 970.032 798.116M900.229 855.473C918.782 839.904 937.647 824.447 971.846 795.05M902.552 859.435C929.471 835.199 961.418 816.413 978.419 800.262M906.042 862.298C926.659 843.759 948.524 825.254 976.466 799.011M905.86 864.936C930.067 845.205 958.869 829.675 984.378 803.21M909.883 865.881C933.132 843.553 961.675 821.208 982.671 803.744M912.336 872.381C947.255 846.282 971.142 819.143 988.712 809.597M916.249 869.676C934.299 853.105 956.417 832.929 989.39 806.186M920.439 873.176C941.7 857.637 959.676 839.55 992.086 811.757M919.583 874.862C948.943 849.274 980.088 825.617 996.171 812.009M929.335 880.778C947.351 859.987 972.33 834.042 1003.17 815.767M924.071 878.371C950.563 857.096 973.474 838.312 1002.8 814.497M927.036 880.926C954.488 858.219 985.419 835.141 1008.26 815.003M929.483 882.797C952.373 864.126 972.735 846.989 1009.84 818.278M936.073 885.801C960.069 866.011 984.602 845.329 1013.66 823.516M935.564 888.602C950.67 875.529 968.6 861.774 1015.41 820.335M943.546 893.122C970.241 872.252 988.756 847.24 1024.68 823.997M940.256 891.043C958.596 878.15 975.836 862.341 1021.26 822.36M942.124 897.104C977.164 870.322 1005.19 850.234 1024.41 828.073M946.925 897.311C975.103 871.627 1004.28 845.937 1025.41 826.82M951.995 900.054C966.721 885.359 980.677 870.477 1030.45 830.52M951.532 900.329C976.28 881.419 999.93 860.892 1032.74 830.499M956.255 905.874C986.366 877.477 1016.15 852.236 1039.97 832.676M956.575 906.521C981.939 885.882 1005.19 863.927 1040.51 832.48M958.886 907.757C981.482 888.936 1008.51 870.338 1048.24 835.051M963.384 908.836C986.199 890.177 1012.78 867.669 1045.21 838.296M962.692 912.181C998.561 889.602 1025.52 862.909 1054.09 842.705M967.807 915.661C995.262 889.768 1024.09 866.392 1053.14 841.468M973.945 920.264C1003.15 891.168 1040.15 856.237 1061.47 844.9M971.227 918.707C994.904 898.044 1016.43 879.219 1060.45 843.106M977.042 919.394C1007.91 899.325 1032.27 872.932 1062.79 845.207M977.938 921.182C1013.06 893.464 1043.92 866.277 1063.2 849.152M982.377 925.331C1013.39 900.231 1041.67 874.3 1067.06 853.567M981.323 926.933C1001.82 907.797 1021.8 893.676 1072.08 850.447M987.46 930.935C1019.92 909.064 1046.99 880.104 1081.06 853.721M988.705 929.36C1016.54 907.42 1046.54 882.333 1076.47 854.693M996.978 933.07C1021.73 913.068 1050.79 887.834 1082.78 860.243M993.226 933.618C1020.93 912.293 1046.38 889.071 1084.41 859.369M1001.06 935.25C1036.32 906.38 1070.15 877.863 1091.02 862.685M1001.09 938.826C1020.67 920.072 1041.42 899.65 1090.23 861.681M1005.7 940.896C1040.64 916.245 1073.08 885.299 1099.42 860.931M1006.22 942.415C1038.61 912.89 1077.67 880.219 1098.74 864.854M1011.19 948.586C1037.39 923.331 1069.19 901.115 1102 864.45M1009.01 947.635C1029.03 929.942 1050.59 912.57 1105.28 866.631M1014.44 952.764C1043.14 930.447 1068.92 907.161 1112.06 871.454M1017.18 949.259C1041.43 928.924 1069.62 906.432 1111.01 869.661M1022.36 952.478C1042.77 933.85 1068.35 916.425 1119.97 871.281M1020.8 954.277C1054.92 927.022 1085.68 897.63 1118.16 871.428M1031.26 959.033C1056.89 931.016 1085.05 907.915 1128.55 873.131M1030.15 959.114C1053.96 934.073 1079.43 912.917 1125.7 875.637M1035.32 965.492C1053.12 940.924 1076.55 920.831 1134.66 880.608M1031.51 963.757C1064.2 936.661 1094.09 909.921 1130.26 879.782M1038.87 966.059C1070.92 941.209 1098.87 917.009 1136.87 883.213M1037.26 968.064C1068.9 938.883 1101.99 913.781 1138.9 880.388M1045.76 970.837C1075.12 943.586 1112.74 915.311 1147.44 882.616M1045.18 971.615C1070.79 947.368 1098.5 926.546 1146.07 884.35M1048.45 971.859C1087.27 947.872 1122.3 915.075 1153.51 888.813M1049.54 973.574C1082.36 946.569 1115.33 917.881 1150.51 887.486M1059.99 978.516C1084.4 952.189 1117.3 927.317 1161.2 890.502M1058.15 976.648C1085.69 951.314 1117.75 924.609 1156.27 892.319M1061.65 983.71C1091.6 958.672 1122.96 929.369 1164.3 891.922M1060.28 981.721C1095.63 951.981 1130.69 921.809 1165.53 893.187M1070.12 983.945C1106.81 955.565 1136.55 925.661 1169.1 894.888M1069.05 986.89C1099.14 959.139 1130.49 929.68 1171.97 895.702M1072.01 986.501C1110 961.007 1146.12 934.096 1179.8 898.593M1073.46 989.324C1103.78 962.905 1134.38 937.399 1178 899.093M1078.39 991.343C1118.91 956.094 1163.29 924.311 1187.57 902.315M1081.13 992.631C1119.26 962.137 1152.75 929.518 1185.28 902.528M1084.86 993.494C1126.4 963.013 1157.97 933.102 1195.83 902.779M1085.19 994.723C1123.68 963.981 1162.32 929.952 1191.1 905.842M1094.19 998.622C1130.37 968.448 1169.78 932.34 1198.66 909.041M1094.57 1000.07C1136.08 963.491 1175.65 930.185 1198.2 907.07M1099.65 1000.77C1141.22 965.001 1183.21 929.663 1204 911.63M1098.5 1004.13C1132.33 973.462 1170.26 944.681 1206.25 912.437M1100.82 1009.53C1132.54 977.953 1168.47 955.68 1212.96 913.772M1103.67 1007.78C1130.67 984.109 1159.6 960.111 1213.23 913.823M1111.83 1008.15C1152.57 977.303 1190.64 941.593 1219.26 920.207M1109.82 1011.77C1155.86 973.787 1200.13 935.743 1220.63 916.521M1116.39 1015.2C1146.66 988.469 1185.58 959.563 1225.29 918.279M1114.55 1013.75C1153.07 985.825 1186.27 957.141 1227.14 918.396M1125.21 1020.99C1145.6 1000.34 1169.68 981.239 1235.78 923.946M1123.79 1018.78C1166 983.416 1207.55 947.315 1236.67 922.314M1126.62 1021.45C1163.34 995.485 1196.46 966.68 1242.17 923.05M1127.85 1021.69C1162.5 991.851 1198.78 961.895 1242.26 924.03M1138.67 1025.54C1161.74 1005.52 1187.18 980.391 1252.67 929.406M1133.37 1023.84C1159.83 1004.08 1183.96 986.378 1251.41 927.773M1141.08 1026C1178.15 995.212 1215.74 963.076 1252.85 930.231M1142.55 1028.44C1167.04 1004.7 1196.17 981.777 1257.04 930.309M1148.99 1032.81C1176.2 1004.28 1210.16 978.567 1264.5 931.722M1146.49 1031.91C1175.6 1006.37 1204.72 981.647 1262.2 933.016M1154.77 1037.74C1198.08 997.987 1241.96 961.083 1272.7 936.513M1153.3 1036.81C1180.43 1012.47 1207.37 988.974 1271.83 934.334M1155.99 1036.71C1203.16 1001.95 1242.28 964.315 1277.05 937.861M1160.26 1038.28C1202.08 1001.36 1245.77 964.503 1278.34 937.415M1164.72 1040.21C1195.21 1022.66 1219.5 996.605 1286.02 940.453M1165.48 1043.13C1189.23 1021.24 1214.04 1002.04 1284.48 940.747M1171.97 1046.22C1214.77 1003.1 1265.71 965.245 1295.28 945.538M1173.25 1046.41C1215.15 1005.69 1263.85 967.674 1293.26 941.869M1179.55 1046.88C1224.68 1012.77 1268.5 972.319 1296.97 946.144M1178.86 1048.45C1216.88 1015.67 1253.54 982.561 1299.83 945.698M1184.7 1054.84C1228.94 1019.53 1269.21 982.533 1308.71 949.177M1183.97 1052.09C1216.2 1024.84 1251.18 996.651 1306.13 947.207M1190.11 1054.64C1230 1023.54 1262.36 994.336 1311.97 953.35M1191.19 1057.48C1229.81 1024.5 1267.49 992.287 1313.18 951.07M1193.79 1061.74C1235.28 1024.97 1279.85 990.844 1321 955.359M1197.65 1061.95C1234.17 1029.68 1272.84 998.07 1322.46 952.607M1206.15 1063.92C1229.98 1042.42 1256.55 1018.45 1325.58 957.459M1202.28 1063.07C1230.5 1039.84 1260.68 1017.35 1328.98 955.333M1206.14 1067.92C1247.34 1037.17 1282.56 1004.58 1337.66 956.756M1209.28 1067.04C1241.62 1037.15 1275.03 1009.88 1334.97 957.685M1219.7 1070.17C1253 1042.29 1284.92 1011.25 1342.74 961.065M1217.06 1070.69C1268.47 1026.86 1318 981.311 1344.88 960.366M1224.47 1075.99C1264.67 1030 1312.98 994.418 1349.93 965.345M1222.74 1074.48C1251.64 1045.88 1284.65 1019.22 1349.5 965.128M1228.48 1076.3C1256.34 1048.47 1287.17 1028 1356.36 964.412M1228.42 1077.55C1264.88 1045.55 1300.52 1017.05 1358.97 964.898M1237.32 1079.43C1267 1055.49 1290.89 1031.66 1367.94 966.549M1233.81 1081.2C1272.67 1047.33 1314.51 1011.25 1368.05 967.364M1245.16 1081.41C1278.58 1045.02 1320.67 1015.04 1373.22 969.717M1242.43 1081.8C1283.12 1049.11 1325.39 1013.08 1372.54 971.562M1250 1087.05C1281.73 1060.69 1306.68 1033.9 1379.89 972.664M1247.1 1087.4C1277.15 1062.32 1303.31 1039.46 1381.06 971.943M1252.7 1088.92C1294.91 1052.88 1340.09 1014.51 1385.13 976.266M1255.35 1087.77C1301.9 1047.96 1348.6 1007.98 1389.1 973.621M1262.26 1093.87C1302.15 1059.46 1342.22 1021.6 1395.57 977.286M1261 1091.81C1291.55 1064.88 1326.63 1035.92 1395.44 977.776M1270.6 1093.7C1299.5 1067.81 1328.31 1041.42 1401.19 982.047M1269.66 1094.83C1305.86 1064.59 1344.5 1033.07 1403.06 979.535M1274.3 1099.63C1307.03 1069.85 1344.81 1043.62 1414.19 981.373M1274.14 1099.87C1321.31 1062.02 1365.54 1021.8 1412.59 981.78M1281.63 1104.19C1332.83 1062.25 1374.91 1020.38 1421.9 983.688M1282.44 1103.42C1326.02 1062.76 1372.7 1020.92 1419.98 985.077M1290.51 1105.84C1336.75 1062.7 1382.59 1022.74 1423.96 983.464M1288.14 1106.3C1337.29 1064.33 1386.99 1019.8 1425.68 986.581M1292.51 1106.82C1323.24 1080.07 1357.76 1053.49 1434.55 989.123M1294.11 1108.2C1346.94 1065.29 1396.49 1021.43 1435.28 988.622M1302.83 1115.23C1335.92 1079.05 1374.66 1048.36 1438.89 992.791M1299.61 1111.46C1354.08 1065.28 1412.93 1016.63 1441.82 991.737M1308.69 1116.89C1348.93 1076.99 1392.1 1041.41 1452.88 994.031M1308.1 1115.99C1338.98 1087.59 1371.05 1059.08 1450.2 994.012M1309.26 1117.27C1363.98 1075.66 1416.44 1031.04 1457.65 993.303M1313.97 1120.11C1361.78 1074.91 1411.74 1032.99 1458.59 995.968M1321.61 1124.09C1361.38 1085.62 1410.01 1046.08 1460.53 998.318M1321.72 1121.09C1368.12 1079.82 1416.35 1037.21 1463.54 998.772M1324.24 1125.1C1371.69 1085.1 1419.09 1046.41 1472.5 1000.31M1328.88 1123.23C1368.36 1092.63 1406.56 1058.37 1473 1000.76M1331.95 1125.89C1366.73 1102.25 1401.27 1070.32 1478.58 1004.38M1333.04 1128.35C1366.17 1100.84 1397.97 1072.86 1478.77 1002.98M1342.25 1133.09C1382.34 1095.95 1426.02 1059.33 1488.65 1003.77M1340.18 1129.92C1383.9 1091.68 1428.01 1052.91 1484.9 1004.88M1346.22 1134.87C1392.38 1094.86 1436.14 1058.55 1494.21 1009.85M1345.31 1135.2C1378.92 1104.99 1410.2 1076.94 1494.81 1006.45M1350.3 1134.58C1392.99 1099.31 1433.44 1068.14 1505.53 1007.94M1351.51 1136.11C1383.55 1108.5 1417.61 1082.47 1501.11 1010.13M1359.89 1141.56C1395.9 1104.07 1438.93 1075.93 1506.08 1011.98M1359.4 1140.93C1415.68 1090.86 1469.76 1044.46 1510.87 1012.05M1364.41 1144.09C1409.95 1107.89 1444 1076.25 1515.52 1014.31M1367.03 1142.18C1410.67 1108.42 1452.82 1071.25 1518.62 1014.64M1374.46 1149.24C1433.43 1097.6 1491.12 1044.21 1522.6 1015.57M1372.93 1145.03C1433.36 1096.69 1492.78 1045.44 1523.32 1017.98M1381.73 1146.73C1415.44 1116.02 1451.5 1085.76 1533.72 1018.94M1378.86 1148.52C1431.73 1105.36 1481.14 1060.14 1533.7 1018.33M1387.2 1152.18C1428.49 1117.57 1469.71 1081.25 1540.31 1020.15M1387.23 1152.98C1433.29 1110.19 1480.94 1071.7 1539.41 1022.42M1393.92 1154.07C1432.86 1124.49 1462.98 1095.64 1550.76 1026.24M1393.66 1156.42C1441.3 1112.34 1491.28 1070.45 1546.02 1023.33M1403.76 1156.12C1436.99 1125.54 1478.5 1092.94 1553.46 1027.43M1400.09 1157.78C1450.04 1116.75 1501.39 1072.18 1557.07 1025.47M1410.46 1162.92C1443.99 1130.01 1482.94 1096.13 1565.81 1028.18M1406.88 1160.69C1457.03 1118.61 1506.5 1079.27 1562.94 1027.87M1414.88 1164.94C1461.36 1125.96 1505.7 1086.02 1569.38 1030.92M1414.79 1164.42C1449.24 1133.91 1485.11 1102.84 1570.69 1028.49M1421.71 1168.11C1460.18 1129.09 1508.05 1095.93 1580.23 1033.57M1420.95 1167.57C1468.4 1128.4 1514.52 1089.67 1580.05 1031.72M1426.23 1170.68C1485.6 1122.26 1548.05 1066.13 1590.68 1034.43M1427.3 1170.6C1490.1 1116.66 1554.46 1061.04 1587.69 1035.08M1436.85 1170.84C1496.87 1126.08 1552.17 1075.49 1598.37 1034.83M1434.03 1172.55C1496.84 1119.49 1556.58 1068.66 1596 1036.69M1440.41 1176.31C1474.45 1145.78 1514.37 1116.31 1599.32 1039.23M1440.69 1175.56C1489.51 1136.27 1536.53 1093.7 1603.41 1039.59M1452.04 1177.38C1506.53 1133.19 1556.4 1082.96 1614.03 1039.83M1449.28 1178.77C1483.49 1149.2 1517.02 1122.7 1609.27 1040.73M1455.05 1180.15C1509.82 1139.44 1560.69 1091.54 1615.14 1043.71M1456.66 1183.04C1500.97 1144.79 1541.3 1109.4 1618.93 1043.43M1461.74 1186.27C1511.27 1145.57 1552.35 1105.88 1624.53 1045.36M1463.96 1183.56C1513 1140.38 1566.44 1097.47 1628.1 1044.35M1467.69 1188.01C1511.6 1151.36 1550.75 1122.11 1632.24 1048.19M1468.48 1187.77C1533.92 1131.7 1599.61 1073.31 1633.09 1046.87M1480.3 1187.74C1515.57 1154.59 1561.71 1118.84 1642.79 1048.39M1477.52 1189.27C1526.29 1147.85 1574.65 1103.74 1643.16 1049.56M1480.6 1190.33C1531.92 1151.53 1583.13 1105.73 1647.42 1049.61M1485.33 1191.97C1516.22 1163.28 1552.58 1133.85 1649.14 1049.94M1493.06 1197.22C1539.75 1157.3 1591.9 1111.49 1659.58 1055.05M1489.54 1195.99C1541.56 1151.04 1593.91 1105.44 1658.29 1052.26M1497.3 1197.28C1543.07 1159.06 1591.09 1116.3 1664.64 1057.15M1498.23 1199.11C1543.33 1159.18 1588.68 1119.65 1664.67 1055.46M1506.58 1200.72C1560.2 1153.89 1614.56 1110.55 1671 1057.76M1504.5 1200.34C1573.85 1142.65 1641.98 1085.75 1676.26 1055.93M1513.37 1204.51C1573.19 1153.75 1621.07 1107.04 1684.37 1058.82M1511.81 1204.02C1567.9 1155.35 1628.1 1102.33 1682.96 1059.33M1521.05 1208.42C1569.14 1165.83 1616.83 1119.84 1687.6 1059.83M1521.18 1206.12C1563.82 1166.85 1610.9 1126.36 1691.6 1060.87M1527.85 1208.52C1583.64 1157.42 1648.12 1106.8 1700.31 1062.11M1526.99 1210.3C1590.64 1155.05 1654.01 1101.25 1698.45 1062.04M1528.51 1213.82C1592.72 1162.29 1652.6 1108.42 1708.15 1067.13M1531.17 1212.01C1585.23 1164.87 1640.42 1119.29 1706.32 1065.58M1538.11 1216.3C1595.86 1169.33 1648.77 1120.53 1714.95 1065.31M1539.64 1216.63C1587.62 1173.86 1637.33 1130.74 1714.69 1066.08M1549.97 1218.21C1609.7 1163.38 1676.65 1105.56 1720.47 1070.38M1547.09 1218.09C1586.19 1186.71 1623.71 1154.99 1721.75 1068.52M1550.1 1219.9C1606.58 1171.32 1665.19 1125.01 1730.75 1070.49M1555.19 1219.4C1591.46 1187.42 1628.07 1155.37 1730.46 1069.91M1562.71 1222.25C1619.98 1172.53 1678.87 1123.5 1735.69 1072.73M1560.85 1223.8C1597.75 1193.92 1634.31 1162.22 1740.23 1071.04M1566.76 1228.07C1630.07 1172.43 1690.27 1118.77 1743.86 1071.43M1566.33 1226.09C1634.85 1171.37 1700.67 1116.01 1744.59 1074.56M1575.52 1231.64C1639.8 1172.7 1709.83 1114.42 1753.67 1076.61M1573.66 1229.1C1631.12 1179.82 1689.29 1132.65 1754.72 1076.31M1580.3 1230.88C1626.17 1198.11 1669.05 1158.56 1765.58 1076.47M1581.89 1232.39C1642.3 1182.67 1700.77 1132.9 1763.85 1076.57M1588.07 1234.8C1648.67 1184.7 1708.59 1129.41 1773.51 1078.78M1590.87 1233.07C1633.3 1197.99 1676.09 1164.17 1770.63 1079.09M1594.66 1238.84C1650.38 1187.41 1712.27 1136.71 1780.67 1078.73M1597.86 1237.06C1645.87 1195.58 1696.55 1150.98 1781.51 1079.67M1601.44 1236.92C1668.96 1182.83 1734.1 1127.98 1790.68 1082.4M1604.89 1237.98C1651.15 1198.1 1698.2 1156.96 1788.29 1083.28M1614.09 1238.56C1662.21 1198.28 1710.5 1156.16 1797.11 1083.37M1611.22 1242.02C1667.78 1195.06 1717.85 1151.44 1796.85 1082.51M1621.91 1242.06C1677.91 1191.99 1746.59 1137.68 1805.28 1084.99M1620.39 1244.49C1669.53 1202.34 1719.51 1159.33 1806.07 1084.68M1625.58 1247.55C1667.54 1206.7 1714.46 1167.91 1813.28 1085.4M1626.18 1247.28C1684.82 1195.98 1742.16 1146.09 1810.91 1087.98M1635.89 1251.42C1700.3 1189.98 1773.94 1128.72 1820.1 1088.82M1632.36 1250.72C1682.9 1206.72 1727.52 1168.26 1818.83 1089.15M1643.33 1251.59C1684.29 1218.46 1719.17 1184.38 1828.31 1091.68M1638.75 1251.33C1691.85 1210.53 1744.27 1167.35 1830.09 1092.06M1649.42 1253.32C1720.9 1191.89 1794.37 1127.23 1838.07 1095.53M1648.92 1253.25C1711.1 1201.43 1776.04 1147.09 1837.48 1092.38M1654.53 1255.45C1702.2 1217.14 1753.09 1177.13 1846.05 1094.75M1656.04 1258.24C1703.18 1217.91 1753.18 1175.39 1846.38 1093.25M1665.16 1259.31C1698.75 1226.2 1741.09 1187.21 1852.15 1096.85M1661.42 1260.04C1730.23 1201.58 1800.52 1143.33 1854.92 1097.19M1667.39 1262.39C1731.79 1209.39 1801.08 1152.49 1862.65 1098.83M1670.37 1260.93C1745.02 1197.2 1821.69 1132.62 1862.98 1097.57M1676.45 1262.3C1735.73 1213.16 1794.66 1168.5 1867.39 1103.02M1678.59 1263.3C1716.05 1229.68 1754.2 1197.67 1868.56 1099.62M1686.7 1268.12C1742.26 1215.63 1809.64 1162.1 1867.71 1109.96M1685.02 1265.66C1745.23 1214.87 1805.09 1161.46 1869 1109.64M1690.25 1271.95C1749.62 1219.04 1800.15 1174.92 1867.39 1118.47M1691.91 1270.58C1731.79 1236.33 1771 1204.14 1867.68 1119.3M1699.93 1270.66C1734.7 1242.13 1776.98 1208.84 1867.48 1128.04M1698.36 1273.37C1747.51 1228.42 1797.93 1187.47 1867.97 1130.03M1702.43 1275.41C1753.32 1239.41 1795.41 1200.51 1867.56 1139.25M1705.53 1274.99C1765.16 1222.62 1823.05 1173.13 1865.02 1139.94M1709.77 1275.06C1748.67 1243.77 1790.11 1213.21 1867.43 1149.71M1712.7 1277.47C1764.7 1233.98 1812.46 1193.08 1864.48 1147.76M1722.96 1279.67C1764.18 1237.84 1817.2 1199.03 1860.93 1160.1M1721.97 1280.77C1766.05 1240.99 1812.62 1201.18 1862.6 1157.21M1730.18 1281.84C1767.1 1246.47 1810.51 1210.17 1859.94 1167.5M1727.2 1283.95C1762.59 1250.83 1801.64 1221.14 1863.03 1167.24M1732.4 1285.68C1762.15 1259.47 1798.03 1234.41 1861.6 1178.13M1734.46 1284.93C1781.29 1242.96 1832.79 1200.6 1861.22 1178.41M1742.11 1289.25C1780.28 1251.42 1822.92 1218.38 1863.77 1189.15M1741.91 1286.91C1769.62 1265.11 1796.21 1240.08 1862.28 1186.65M1752.56 1289.29C1789.99 1262.24 1827.58 1227.21 1856.23 1196.49M1749.75 1289.48C1792.77 1256.23 1830.41 1221.68 1861.06 1195.26M1760.4 1289.03C1780.03 1269.93 1809.46 1251.93 1862.06 1204.07M1757.06 1291.4C1792.08 1266.07 1822.34 1239.4 1860.31 1206.09M1764.75 1295.69C1794.08 1270.46 1818.18 1247.98 1854.28 1213.57M1764.71 1295.02C1790.32 1272.13 1818.15 1250.62 1858.76 1215.14M1774.22 1298.26C1790.83 1280.19 1805.98 1264.88 1853.76 1225.86M1772.33 1297.36C1792.99 1277.56 1818.32 1259.46 1854.89 1225.38M1778.94 1300.6C1798.37 1284.75 1814.67 1270.96 1859.88 1235.03M1782.68 1298.18C1809.33 1273.3 1838.52 1249.98 1856.99 1233.58M1789.93 1302.62C1811.53 1283.33 1830.18 1264.95 1850.73 1244.28M1787.02 1302.89C1808.02 1285.83 1827.03 1267.19 1855.56 1246.13M1798.03 1304.79C1818.93 1284.04 1837.18 1265.79 1855.84 1256.48M1793.5 1303.32C1816.61 1288.27 1836.51 1271.44 1855.3 1252.8M1803.44 1305.48C1816.02 1296.82 1827.1 1287.34 1851.21 1263.71M1803.43 1307.1C1819.84 1293.64 1831.08 1279.75 1854.22 1264.52M1807.82 1307.32C1823.11 1295.38 1842.99 1283.54 1849.17 1271.7M1812.53 1309.36C1823.5 1299.97 1834.05 1289.39 1853.06 1273.88M1820.26 1309.75C1832.87 1300.79 1838.03 1290.5 1852.33 1284.31M1818.59 1311.4C1826.32 1303.08 1836.06 1297.5 1851.48 1284.3M1822.89 1311.82C1831.1 1308.9 1842.17 1299.97 1848.99 1292.99M1825.25 1311.58C1830.79 1308.37 1836.89 1302.48 1849.13 1292.45M1832.21 1313.88C1838.73 1313.6 1839.58 1310.27 1849.69 1301.55M1832.84 1316.29C1837.96 1312.48 1841.09 1309.29 1848.42 1302.07M7.07305 -128.705V-128.705Z" stroke="white"/>
</svg>
