<svg width="1174" height="826" viewBox="0 0 1174 826" fill="none" xmlns="http://www.w3.org/2000/svg">
<path d="M791.713 0.324121L812.127 227.212H863.001L871.75 116.037H874.667L883.416 227.212H934.29L955.676 0.324121H910.311L903.506 149.422H900.266L888.6 0.324121H858.789L847.123 149.422H843.883L837.078 0.324121H791.713Z" fill="#FF0022"/>
<path d="M1045.63 39.5433V0H963V227.212H1046.6V187.668H1008.37V128.029H1044.98V88.4862H1008.37V39.5433H1045.63Z" fill="#FF0022"/>
<path d="M1055.4 0.324121V227.212H1111.46C1150.67 227.212 1174 206.468 1174 170.814V167.249C1174 134.512 1153.59 114.416 1136.74 112.796V109.554C1153.26 107.61 1169.79 90.755 1169.79 58.0184V56.3978C1169.79 20.4199 1148.4 0.324121 1110.81 0.324121H1055.4ZM1100.77 39.8674H1110.16C1120.53 39.8674 1124.42 44.7293 1124.42 56.3978V75.197C1124.42 86.8655 1120.53 91.4033 1110.16 91.4033H1100.77V39.8674ZM1100.77 130.947H1110.81C1121.51 130.947 1126.04 136.133 1126.04 148.125V170.814C1126.04 182.807 1121.83 187.668 1111.14 187.668H1100.77V130.947Z" fill="#FF0022"/>
<path d="M145.99 3.8816L165.584 86.3952V119.17H182.049V86.3952L201.972 3.8816H185.507L174.64 63.1728H173.487L162.62 3.8816H145.99Z" fill="#FF0022"/>
<path d="M204.439 31.8802V91.1714C204.439 111.759 216.624 120.817 233.089 120.817C249.884 120.817 262.398 111.594 262.398 91.1714V31.8802C262.398 11.4577 249.884 2.23462 233.089 2.23462C216.624 2.23462 204.439 11.1283 204.439 31.8802ZM220.905 30.7273C220.905 20.1867 226.997 16.5633 233.419 16.5633C239.675 16.5633 245.932 20.1867 245.932 30.7273V92.3243C245.932 102.865 239.675 106.488 233.419 106.488C226.997 106.488 220.905 102.865 220.905 92.3243V30.7273Z" fill="#FF0022"/>
<path d="M270.848 3.8816V91.1714C270.848 111.759 282.538 120.817 298.674 120.817C315.14 120.817 327.159 111.594 327.159 91.1714V3.8816H310.694V92.3243C310.694 102.865 304.931 106.488 299.003 106.488C293.076 106.488 287.313 102.865 287.313 92.3243V3.8816H270.848Z" fill="#FF0022"/>
<path d="M335.652 3.8816V119.17H352.117V72.2312H362.326C370.723 72.2312 375.169 77.3368 375.169 86.5599V95.4535C375.169 104.677 375.169 112.417 376.815 119.17H393.281C391.963 113.241 391.634 106.818 391.634 95.6182V93.4772C391.634 77.6662 383.566 67.4549 374.51 65.6433V64.4904C383.731 62.6787 391.634 52.9615 391.634 35.5036V34.8448C391.634 14.7517 380.767 3.8816 362.49 3.8816H335.652ZM352.117 18.2103H362.326C370.723 18.2103 375.169 23.6453 375.169 33.5272V42.5856C375.169 52.4674 370.723 57.9025 362.326 57.9025H352.117V18.2103Z" fill="#FF0022"/>
<path d="M472.006 18.2103V3.8816H430.842V119.17H447.308V68.7725H470.853V54.4438H447.308V18.2103H472.006Z" fill="#FF0022"/>
<path d="M478.755 3.8816V91.1714C478.755 111.759 490.446 120.817 506.582 120.817C523.047 120.817 535.067 111.594 535.067 91.1714V3.8816H518.602V92.3243C518.602 102.865 512.839 106.488 506.911 106.488C500.984 106.488 495.221 102.865 495.221 92.3243V3.8816H478.755Z" fill="#FF0022"/>
<path d="M594.438 3.8816H540.102V18.2103H559.037V119.17H575.502V18.2103H594.438V3.8816Z" fill="#FF0022"/>
<path d="M599.995 3.8816V91.1714C599.995 111.759 611.685 120.817 627.821 120.817C644.286 120.817 656.306 111.594 656.306 91.1714V3.8816H639.841V92.3243C639.841 102.865 634.078 106.488 628.15 106.488C622.223 106.488 616.46 102.865 616.46 92.3243V3.8816H599.995Z" fill="#FF0022"/>
<path d="M664.799 3.8816V119.17H681.264V72.2312H691.473C699.87 72.2312 704.316 77.3368 704.316 86.5599V95.4535C704.316 104.677 704.316 112.417 705.962 119.17H722.428C721.11 113.241 720.781 106.818 720.781 95.6182V93.4772C720.781 77.6662 712.713 67.4549 703.657 65.6433V64.4904C712.878 62.6787 720.781 52.9615 720.781 35.5036V34.8448C720.781 14.7517 709.914 3.8816 691.637 3.8816H664.799ZM681.264 18.2103H691.473C699.87 18.2103 704.316 23.6453 704.316 33.5272V42.5856C704.316 52.4674 699.87 57.9025 691.473 57.9025H681.264V18.2103Z" fill="#FF0022"/>
<path d="M771.566 18.2103V3.8816H730.403V119.17H772.39V104.841H746.868V66.302H770.743V51.9733H746.868V18.2103H771.566Z" fill="#FF0022"/>
<path d="M0 595.476V673.872H11.1965V595.476H0Z" fill="#FF0022"/>
<path d="M56.4582 624.034V614.515C56.4582 601.86 49.1805 594.356 36.8643 594.356C24.6602 594.356 17.6064 601.636 17.6064 614.515V616.195C17.6064 627.506 21.0773 633.33 29.8106 636.802L34.737 638.594C43.2463 642.066 45.4856 644.865 45.4856 650.913V655.617C45.4856 661.665 42.3506 665.248 36.9763 665.248C31.714 665.248 28.579 661.665 28.579 655.617V645.313H17.3825V654.833C17.3825 667.6 24.4363 674.992 36.8643 674.992C49.2924 674.992 56.6821 667.488 56.6821 654.833V652.705C56.6821 641.17 53.3232 635.682 44.254 632.21L39.7754 630.53C30.9302 626.946 28.8029 624.146 28.8029 618.099V613.731C28.8029 607.683 31.8259 604.099 36.9763 604.099C42.1267 604.099 45.2617 607.683 45.2617 613.731V624.034H56.4582Z" fill="#FF0022"/>
<path d="M92.5116 595.476L80.4195 673.872H91.6159L95.0868 651.137H107.291L110.874 673.872H122.07L110.09 595.476H92.5116ZM96.5424 641.394L100.797 613.731H101.581L105.835 641.394H96.5424Z" fill="#FF0022"/>
<path d="M301.653 298.098V524.985H358.683C394.004 524.985 417.658 507.482 417.658 468.587V354.495C417.658 315.6 394.004 298.098 358.683 298.098H301.653ZM347.342 337.641H358.359C366.46 337.641 372.293 341.206 372.293 353.847V469.236C372.293 481.877 366.46 485.442 358.359 485.442H347.342V337.641Z" fill="#FF0022"/>
<path d="M510.86 337.317V297.773H428.23V524.985H511.832V485.442H473.596V425.803H510.212V386.26H473.596V337.317H510.86Z" fill="#FF0022"/>
<path d="M637.286 378.481V354.171C637.286 316.573 615.575 294.856 578.311 294.856C541.694 294.856 520.956 315.925 520.956 354.171V358.061C520.956 393.39 528.733 409.597 553.036 420.941L565.349 426.451C588.68 437.796 592.244 442.333 592.244 455.947V472.477C592.244 482.849 587.384 488.683 578.959 488.683C570.534 488.683 565.673 482.849 565.673 472.153V444.602H520.308V468.587C520.308 507.158 541.046 528.227 578.311 528.227C615.899 528.227 637.934 506.51 637.934 468.587V463.401C637.934 428.072 629.833 412.514 605.854 401.494L594.837 396.632C569.562 384.639 566.321 379.777 566.321 366.164V350.93C566.321 340.234 570.858 334.4 578.959 334.4C587.06 334.4 591.92 340.234 591.92 350.93V378.481H637.286Z" fill="#FF0022"/>
<path d="M648.159 298.098V524.985H693.524V298.098H648.159Z" fill="#FF0022"/>
<path d="M749.527 350.606C749.527 337.965 756.008 334.076 762.813 334.076C769.618 334.076 776.099 337.965 776.099 350.606V390.149H821.464V353.847C821.464 314.628 797.809 294.532 762.165 294.532C726.845 294.532 704.162 313.656 704.162 353.847V468.587C704.162 510.4 728.141 528.227 750.175 528.227C766.377 528.227 781.931 519.151 787.116 502.296H790.032V524.661H821.464V401.169H761.517V430.665H776.099V467.291C776.099 481.877 768.97 488.683 761.517 488.683C755.036 488.683 749.527 483.173 749.527 472.153V350.606Z" fill="#FF0022"/>
<path d="M906.218 298.098L916.911 447.195H914.319L881.915 298.098H832.013V524.985H877.378L867.333 376.86H869.925L901.357 524.985H951.583V298.098H906.218Z" fill="#FF0022"/>
<path d="M1045.33 337.317V297.773H962.704V524.985H1046.31V485.442H1008.07V425.803H1044.69V386.26H1008.07V337.317H1045.33Z" fill="#FF0022"/>
<path d="M1055.11 298.098V525.309H1100.47V438.444H1110.84C1120.56 438.444 1125.1 443.63 1125.1 455.298V478.635C1125.1 496.138 1125.42 511.372 1128.34 524.985H1173.7C1170.79 512.344 1170.46 498.407 1170.46 478.959V475.718C1170.46 442.657 1152.97 421.913 1137.09 420.293V417.052C1152.97 415.431 1170.46 396.632 1170.46 360.33V358.709C1170.46 318.518 1148.75 298.098 1111.16 298.098H1055.11ZM1100.47 337.641H1110.84C1120.56 337.641 1125.1 343.151 1125.1 354.82V381.398C1125.1 393.39 1120.56 398.901 1110.84 398.901H1100.47V337.641Z" fill="#FF0022"/>
<path d="M147.835 595.871V769.926C147.835 782.243 142.327 786.781 135.846 786.781C129.365 786.781 123.533 782.243 123.533 769.926V719.687H78.1671V766.685C78.1671 806.553 99.2296 826 134.874 826C170.842 826 193.201 806.228 193.201 766.685V595.871H147.835Z" fill="#FF0022"/>
<path d="M203.864 595.871V766.685C203.864 806.553 225.898 826 261.219 826C296.863 826 319.546 806.228 319.546 766.685V595.871H274.18V769.926C274.18 782.243 268.347 786.781 261.867 786.781C255.386 786.781 249.229 782.243 249.229 769.926V595.871H203.864Z" fill="#FF0022"/>
<path d="M404.337 595.871L415.031 744.969H412.438L380.035 595.871H330.133V822.759H375.498L365.453 674.634H368.045L399.477 822.759H449.703V595.871H404.337Z" fill="#FF0022"/>
<path d="M460.824 595.871V822.759H506.189V595.871H460.824Z" fill="#FF0022"/>
<path d="M516.827 651.621V766.685C516.827 806.553 539.51 826 574.83 826C610.798 826 634.129 806.228 634.129 766.685V651.621C634.129 612.402 610.798 592.63 574.83 592.63C539.51 592.63 516.827 611.753 516.827 651.621ZM562.192 648.704C562.192 636.063 568.673 632.173 575.478 632.173C582.607 632.173 588.764 636.063 588.764 648.704V769.926C588.764 782.243 582.607 786.781 575.478 786.781C568.673 786.781 562.192 782.243 562.192 769.926V648.704Z" fill="#FF0022"/>
<path d="M644.678 595.871V823.083H690.043V736.217H700.413C710.134 736.217 714.67 741.403 714.67 753.072V776.409C714.67 793.912 714.994 809.145 717.911 822.759H763.276C760.36 810.118 760.036 796.18 760.036 776.733V773.492C760.036 740.431 742.538 719.687 726.66 718.066V714.825C742.538 713.204 760.036 694.405 760.036 658.103V656.483C760.036 616.291 738.325 595.871 700.737 595.871H644.678ZM690.043 635.414H700.413C710.134 635.414 714.67 640.925 714.67 652.593V679.171C714.67 691.164 710.134 696.674 700.413 696.674H690.043V635.414Z" fill="#FF0022"/>
</svg>
