<svg width="270" height="256" viewBox="0 0 270 256" fill="none" xmlns="http://www.w3.org/2000/svg">
<path d="M151.066 1.00002L157.366 71H173.066L175.766 36.7H176.666L179.366 71H195.066L201.666 1.00002H187.666L185.566 47H184.566L180.966 1.00002H171.766L168.166 47H167.166L165.066 1.00002H151.066Z" fill="#FFF016"/>
<path d="M229.427 13.1V0.900024H203.927V71H229.727V58.8H217.927V40.4H229.227V28.2H217.927V13.1H229.427Z" fill="#FFF016"/>
<path d="M232.442 1.00002V71H249.742C261.842 71 269.042 64.6 269.042 53.6V52.5C269.042 42.4 262.742 36.2 257.542 35.7V34.7C262.642 34.1 267.742 28.9 267.742 18.8V18.3C267.742 7.20003 261.142 1.00002 249.542 1.00002H232.442ZM246.442 13.2H249.342C252.542 13.2 253.742 14.7 253.742 18.3V24.1C253.742 27.7 252.542 29.1 249.342 29.1H246.442V13.2ZM246.442 41.3H249.542C252.842 41.3 254.242 42.9 254.242 46.6V53.6C254.242 57.3 252.942 58.8 249.642 58.8H246.442V41.3Z" fill="#FFF016"/>
<path d="M0.117981 93V163H17.718C28.618 163 35.918 157.6 35.918 145.6V110.4C35.918 98.4 28.618 93 17.718 93H0.117981ZM14.218 105.2H17.618C20.118 105.2 21.918 106.3 21.918 110.2V145.8C21.918 149.7 20.118 150.8 17.618 150.8H14.218V105.2Z" fill="#FFF016"/>
<path d="M64.6805 105.1V92.9H39.1805V163H64.9805V150.8H53.1805V132.4H64.4805V120.2H53.1805V105.1H64.6805Z" fill="#FFF016"/>
<path d="M103.696 117.8V110.3C103.696 98.7 96.9961 92 85.4961 92C74.1961 92 67.7961 98.5 67.7961 110.3V111.5C67.7961 122.4 70.1961 127.4 77.6961 130.9L81.4961 132.6C88.6961 136.1 89.7961 137.5 89.7961 141.7V146.8C89.7961 150 88.2961 151.8 85.6961 151.8C83.0961 151.8 81.5961 150 81.5961 146.7V138.2H67.5961V145.6C67.5961 157.5 73.9961 164 85.4961 164C97.0961 164 103.896 157.3 103.896 145.6V144C103.896 133.1 101.396 128.3 93.9961 124.9L90.5961 123.4C82.7961 119.7 81.7961 118.2 81.7961 114V109.3C81.7961 106 83.1961 104.2 85.6961 104.2C88.1961 104.2 89.6961 106 89.6961 109.3V117.8H103.696Z" fill="#FFF016"/>
<path d="M107.052 93V163H121.052V93H107.052Z" fill="#FFF016"/>
<path d="M138.334 109.2C138.334 105.3 140.334 104.1 142.434 104.1C144.534 104.1 146.534 105.3 146.534 109.2V121.4H160.534V110.2C160.534 98.1 153.234 91.9 142.234 91.9C131.334 91.9 124.334 97.8 124.334 110.2V145.6C124.334 158.5 131.734 164 138.534 164C143.534 164 148.334 161.2 149.934 156H150.834V162.9H160.534V124.8H142.034V133.9H146.534V145.2C146.534 149.7 144.334 151.8 142.034 151.8C140.034 151.8 138.334 150.1 138.334 146.7V109.2Z" fill="#FFF016"/>
<path d="M186.69 93L189.99 139H189.19L179.19 93H163.79V163H177.79L174.69 117.3H175.49L185.19 163H200.69V93H186.69Z" fill="#FFF016"/>
<path d="M229.622 105.1V92.9H204.122V163H229.922V150.8H218.122V132.4H229.422V120.2H218.122V105.1H229.622Z" fill="#FFF016"/>
<path d="M232.638 93V163.1H246.638V136.3H249.838C252.838 136.3 254.238 137.9 254.238 141.5V148.7C254.238 154.1 254.338 158.8 255.238 163H269.238C268.338 159.1 268.238 154.8 268.238 148.8V147.8C268.238 137.6 262.837 131.2 257.938 130.7V129.7C262.837 129.2 268.238 123.4 268.238 112.2V111.7C268.238 99.3 261.538 93 249.938 93H232.638ZM246.638 105.2H249.838C252.838 105.2 254.238 106.9 254.238 110.5V118.7C254.238 122.4 252.838 124.1 249.838 124.1H246.638V105.2Z" fill="#FFF016"/>
<path d="M79.3094 185V238.7C79.3094 242.5 77.6094 243.9 75.6094 243.9C73.6094 243.9 71.8094 242.5 71.8094 238.7V223.2H57.8094V237.7C57.8094 250 64.3094 256 75.3094 256C86.4094 256 93.3094 249.9 93.3094 237.7V185H79.3094Z" fill="#FFF016"/>
<path d="M96.6 185V237.7C96.6 250 103.4 256 114.3 256C125.3 256 132.3 249.9 132.3 237.7V185H118.3V238.7C118.3 242.5 116.5 243.9 114.5 243.9C112.5 243.9 110.6 242.5 110.6 238.7V185H96.6Z" fill="#FFF016"/>
<path d="M158.467 185L161.767 231H160.967L150.967 185H135.567V255H149.567L146.467 209.3H147.267L156.967 255H172.467V185H158.467Z" fill="#FFF016"/>
<path d="M175.899 185V255H189.899V185H175.899Z" fill="#FFF016"/>
<path d="M193.182 202.2V237.7C193.182 250 200.182 256 211.082 256C222.182 256 229.382 249.9 229.382 237.7V202.2C229.382 190.1 222.182 184 211.082 184C200.182 184 193.182 189.9 193.182 202.2ZM207.182 201.3C207.182 197.4 209.182 196.2 211.282 196.2C213.482 196.2 215.382 197.4 215.382 201.3V238.7C215.382 242.5 213.482 243.9 211.282 243.9C209.182 243.9 207.182 242.5 207.182 238.7V201.3Z" fill="#FFF016"/>
<path d="M232.638 185V255.1H246.638V228.3H249.838C252.838 228.3 254.238 229.9 254.238 233.5V240.7C254.238 246.1 254.338 250.8 255.238 255H269.238C268.338 251.1 268.238 246.8 268.238 240.8V239.8C268.238 229.6 262.837 223.2 257.938 222.7V221.7C262.837 221.2 268.238 215.4 268.238 204.2V203.7C268.238 191.3 261.538 185 249.938 185H232.638ZM246.638 197.2H249.838C252.838 197.2 254.238 198.9 254.238 202.5V210.7C254.238 214.4 252.838 216.1 249.838 216.1H246.638V197.2Z" fill="#FFF016"/>
</svg>
