<svg width="1203" height="825" viewBox="0 0 1203 825" fill="none" xmlns="http://www.w3.org/2000/svg">
<path d="M822.034 0.599828L842.32 226H892.874L901.568 115.554H904.466L913.16 226H963.714L984.966 0.599828H939.886L933.124 148.72H929.904L918.312 0.599828H888.688L877.096 148.72H873.876L867.114 0.599828H822.034Z" fill="#FFF016"/>
<path d="M1074.35 39.5618V0.277832H992.243V226H1075.32V186.716H1037.32V127.468H1073.71V88.1838H1037.32V39.5618H1074.35Z" fill="#FFF016"/>
<path d="M1084.06 0.599828V226H1139.77C1178.73 226 1201.92 205.392 1201.92 169.972V166.43C1201.92 133.908 1181.63 113.944 1164.89 112.334V109.114C1181.31 107.182 1197.73 90.4378 1197.73 57.9158V56.3058C1197.73 20.5638 1176.48 0.599828 1139.13 0.599828H1084.06ZM1129.14 39.8838H1138.48C1148.79 39.8838 1152.65 44.7138 1152.65 56.3058V74.9818C1152.65 86.5738 1148.79 91.0818 1138.48 91.0818H1129.14V39.8838ZM1129.14 130.366H1139.13C1149.75 130.366 1154.26 135.518 1154.26 147.432V169.972C1154.26 181.886 1150.07 186.716 1139.45 186.716H1129.14V130.366Z" fill="#FFF016"/>
<path d="M335.98 296.6V522H392.652C427.75 522 451.256 504.612 451.256 465.972V352.628C451.256 313.988 427.75 296.6 392.652 296.6H335.98ZM381.382 335.884H392.33C400.38 335.884 406.176 339.426 406.176 351.984V466.616C406.176 479.174 400.38 482.716 392.33 482.716H381.382V335.884Z" fill="#FFF016"/>
<path d="M543.871 335.562V296.278H461.761V522H544.837V482.716H506.841V423.468H543.227V384.184H506.841V335.562H543.871Z" fill="#FFF016"/>
<path d="M669.501 376.456V352.306C669.501 314.954 647.927 293.38 610.897 293.38C574.511 293.38 553.903 314.31 553.903 352.306V356.17C553.903 391.268 561.631 407.368 585.781 418.638L598.017 424.112C621.201 435.382 624.743 439.89 624.743 453.414V469.836C624.743 480.14 619.913 485.936 611.541 485.936C603.169 485.936 598.339 480.14 598.339 469.514V442.144H553.259V465.972C553.259 504.29 573.867 525.22 610.897 525.22C648.249 525.22 670.145 503.646 670.145 465.972V460.82C670.145 425.722 662.095 410.266 638.267 399.318L627.319 394.488C602.203 382.574 598.983 377.744 598.983 364.22V349.086C598.983 338.46 603.491 332.664 611.541 332.664C619.591 332.664 624.421 338.46 624.421 349.086V376.456H669.501Z" fill="#FFF016"/>
<path d="M680.306 296.6V522H725.386V296.6H680.306Z" fill="#FFF016"/>
<path d="M781.037 348.764C781.037 336.206 787.477 332.342 794.239 332.342C801.001 332.342 807.441 336.206 807.441 348.764V388.048H852.521V351.984C852.521 313.022 829.015 293.058 793.595 293.058C758.497 293.058 735.957 312.056 735.957 351.984V465.972C735.957 507.51 759.785 525.22 781.681 525.22C797.781 525.22 813.237 516.204 818.389 499.46H821.287V521.678H852.521V398.996H792.951V428.298H807.441V464.684C807.441 479.174 800.357 485.936 792.951 485.936C786.511 485.936 781.037 480.462 781.037 469.514V348.764Z" fill="#FFF016"/>
<path d="M936.741 296.6L947.367 444.72H944.791L912.591 296.6H863.003V522H908.083L898.101 374.846H900.677L931.911 522H981.821V296.6H936.741Z" fill="#FFF016"/>
<path d="M1074.98 335.562V296.278H992.872V522H1075.95V482.716H1037.95V423.468H1074.34V384.184H1037.95V335.562H1074.98Z" fill="#FFF016"/>
<path d="M1084.69 296.6V522.322H1129.77V436.026H1140.08C1149.74 436.026 1154.24 441.178 1154.24 452.77V475.954C1154.24 493.342 1154.57 508.476 1157.46 522H1202.54C1199.65 509.442 1199.32 495.596 1199.32 476.276V473.056C1199.32 440.212 1181.94 419.604 1166.16 417.994V414.774C1181.94 413.164 1199.32 394.488 1199.32 358.424V356.814C1199.32 316.886 1177.75 296.6 1140.4 296.6H1084.69ZM1129.77 335.884H1140.08C1149.74 335.884 1154.24 341.358 1154.24 352.95V379.354C1154.24 391.268 1149.74 396.742 1140.08 396.742H1129.77V335.884Z" fill="#FFF016"/>
<path d="M234.801 3.69984L253.724 108H265.942L285.759 3.69984H284.567L266.836 92.0568H266.538L249.701 3.69984H234.801Z" fill="#FFF016"/>
<path d="M289.582 29.0298V82.6698C289.582 101.295 300.608 109.49 315.508 109.49C330.706 109.49 342.03 101.146 342.03 82.6698V29.0298C342.03 10.5538 330.706 2.20984 315.508 2.20984C300.608 2.20984 289.582 10.2558 289.582 29.0298ZM304.482 15.9178C304.482 6.38184 309.995 3.10383 315.806 3.10383C321.468 3.10383 327.13 6.38184 327.13 15.9178V95.7818C327.13 105.318 321.468 108.596 315.806 108.596C309.995 108.596 304.482 105.318 304.482 95.7818V15.9178Z" fill="#FFF016"/>
<path d="M392.956 3.69984H343.786V4.59384H360.921V108H375.821V4.59384H392.956V3.69984Z" fill="#FFF016"/>
<path d="M398.861 3.69984V108H413.761V59.5748H422.999C430.598 59.5748 434.621 64.1938 434.621 72.5378V86.8418C434.621 95.0368 434.77 102.04 436.111 108H451.011C449.819 102.785 449.521 96.8248 449.521 86.8418V84.9048C449.521 70.4518 442.22 60.9158 428.81 59.2768V58.9788C442.369 57.3398 449.521 48.1018 449.521 32.4568V31.7118C449.521 13.5338 439.687 3.69984 423.148 3.69984H398.861ZM413.761 4.74284H422.999C430.598 4.74284 434.621 9.51084 434.621 18.5998V44.8238C434.621 53.7638 430.598 58.6808 422.999 58.6808H413.761V4.74284Z" fill="#FFF016"/>
<path d="M495.479 4.59384V3.69984H458.229V108H496.224V107.106H473.129V54.2108H494.734V53.3168H473.129V4.59384H495.479Z" fill="#FFF016"/>
<path d="M566.777 4.59384V3.69984H529.527V108H544.427V56.2968H565.734V55.5518H544.427V4.59384H566.777Z" fill="#FFF016"/>
<path d="M572.449 3.69984V82.6698C572.449 101.295 583.028 109.49 597.63 109.49C612.53 109.49 623.407 101.146 623.407 82.6698V3.69984H608.507V95.7818C608.507 105.318 603.292 108.596 597.928 108.596C592.564 108.596 587.349 105.318 587.349 95.7818V3.69984H572.449Z" fill="#FFF016"/>
<path d="M677.133 3.69984H627.963V4.59384H645.098V108H659.998V4.59384H677.133V3.69984Z" fill="#FFF016"/>
<path d="M682.162 3.69984V82.6698C682.162 101.295 692.741 109.49 707.343 109.49C722.243 109.49 733.12 101.146 733.12 82.6698V3.69984H718.22V95.7818C718.22 105.318 713.005 108.596 707.641 108.596C702.277 108.596 697.062 105.318 697.062 95.7818V3.69984H682.162Z" fill="#FFF016"/>
<path d="M740.805 3.69984V108H755.705V59.5748H764.943C772.542 59.5748 776.565 64.1938 776.565 72.5378V86.8418C776.565 95.0368 776.714 102.04 778.055 108H792.955C791.763 102.785 791.465 96.8248 791.465 86.8418V84.9048C791.465 70.4518 784.164 60.9158 770.754 59.2768V58.9788C784.313 57.3398 791.465 48.1018 791.465 32.4568V31.7118C791.465 13.5338 781.631 3.69984 765.092 3.69984H740.805ZM755.705 4.74284H764.943C772.542 4.74284 776.565 9.51084 776.565 18.5998V44.8238C776.565 53.7638 772.542 58.6808 764.943 58.6808H755.705V4.74284Z" fill="#FFF016"/>
<path d="M21.7391 596.01V595.5H0.489136V655H22.1641V654.49H8.98914V624.315H21.3141V623.805H8.98914V596.01H21.7391Z" fill="#FFF016"/>
<path d="M53.7695 617.175V609.95C53.7695 600.345 48.2445 594.65 38.8945 594.65C29.6295 594.65 24.2745 600.175 24.2745 609.95V611.225C24.2745 619.81 26.9095 624.23 33.5395 626.865L37.2795 628.225C43.7395 630.86 45.4395 632.985 45.4395 637.575V648.03C45.4395 652.62 43.0595 655.34 38.9795 655.34C34.9845 655.34 32.6045 652.62 32.6045 648.03V633.325H24.1045V640.55C24.1045 650.24 29.4595 655.85 38.8945 655.85C48.3295 655.85 53.9395 650.155 53.9395 640.55V638.935C53.9395 630.18 51.3895 626.015 44.5045 623.38L41.1045 622.105C34.3895 619.385 32.7745 617.26 32.7745 612.67V602.47C32.7745 597.88 35.0695 595.16 38.9795 595.16C42.8895 595.16 45.2695 597.88 45.2695 602.47V617.175H53.7695Z" fill="#FFF016"/>
<path d="M81.3766 595.5H53.3266V596.01H63.1016V655H71.6016V596.01H81.3766V595.5Z" fill="#FFF016"/>
<path d="M96.1188 595.5V640.55C96.1188 651.175 102.154 655.85 110.484 655.85C118.984 655.85 125.189 651.09 125.189 640.55V595.5H116.689V648.03C116.689 653.47 113.714 655.34 110.654 655.34C107.594 655.34 104.619 653.47 104.619 648.03V595.5H96.1188Z" fill="#FFF016"/>
<path d="M154.733 595.5V652.365H154.563L136.628 595.5H127.873V655H128.383V597.2H128.553L146.573 655H155.243V595.5H154.733Z" fill="#FFF016"/>
<path d="M178.976 595.6V768.514C178.976 780.75 173.502 785.258 167.062 785.258C160.622 785.258 154.826 780.75 154.826 768.514V718.604H109.746V765.294C109.746 804.9 130.676 824.22 166.096 824.22C201.838 824.22 224.056 804.578 224.056 765.294V595.6H178.976Z" fill="#FFF016"/>
<path d="M234.652 595.6V765.294C234.652 804.9 256.548 824.22 291.646 824.22C327.066 824.22 349.606 804.578 349.606 765.294V595.6H304.526V768.514C304.526 780.75 298.73 785.258 292.29 785.258C285.85 785.258 279.732 780.75 279.732 768.514V595.6H234.652Z" fill="#FFF016"/>
<path d="M433.864 595.6L444.49 743.72H441.914L409.714 595.6H360.126V821H405.206L395.224 673.846H397.8L429.034 821H478.944V595.6H433.864Z" fill="#FFF016"/>
<path d="M489.995 595.6V821H535.075V595.6H489.995Z" fill="#FFF016"/>
<path d="M545.646 650.984V765.294C545.646 804.9 568.186 824.22 603.284 824.22C639.026 824.22 662.21 804.578 662.21 765.294V650.984C662.21 612.022 639.026 592.38 603.284 592.38C568.186 592.38 545.646 611.378 545.646 650.984ZM590.726 648.086C590.726 635.528 597.166 631.664 603.928 631.664C611.012 631.664 617.13 635.528 617.13 648.086V768.514C617.13 780.75 611.012 785.258 603.928 785.258C597.166 785.258 590.726 780.75 590.726 768.514V648.086Z" fill="#FFF016"/>
<path d="M672.693 595.6V821.322H717.773V735.026H728.077C737.737 735.026 742.245 740.178 742.245 751.77V774.954C742.245 792.342 742.567 807.476 745.465 821H790.545C787.647 808.442 787.325 794.596 787.325 775.276V772.056C787.325 739.212 769.937 718.604 754.159 716.994V713.774C769.937 712.164 787.325 693.488 787.325 657.424V655.814C787.325 615.886 765.751 595.6 728.399 595.6H672.693ZM717.773 634.884H728.077C737.737 634.884 742.245 640.358 742.245 651.95V678.354C742.245 690.268 737.737 695.742 728.077 695.742H717.773V634.884Z" fill="#FFF016"/>
</svg>
