<svg width="24" height="24" viewBox="0 0 24 24" fill="none" xmlns="http://www.w3.org/2000/svg">
<path d="M11.553 3.06407C11.686 3.12279 11.799 3.2189 11.8784 3.34069C11.9577 3.46247 12 3.6047 12 3.75007V20.2501C12.0001 20.3955 11.9579 20.5378 11.8786 20.6596C11.7993 20.7815 11.6863 20.8777 11.5533 20.9365C11.4204 20.9953 11.2732 21.0142 11.1296 20.9908C10.9861 20.9675 10.8525 20.903 10.745 20.8051L5.46 16.0001H2.75C2.28587 16.0001 1.84075 15.8157 1.51256 15.4875C1.18437 15.1593 1 14.7142 1 14.2501V9.75007C1 8.78407 1.784 8.00007 2.75 8.00007H5.46L10.745 3.19507C10.8527 3.09769 10.9864 3.03359 11.1298 3.01053C11.2732 2.98746 11.4201 3.0064 11.553 3.06507V3.06407ZM10.5 5.44507L6.255 9.30507C6.11692 9.43084 5.93678 9.50039 5.75 9.50007H2.75C2.6837 9.50007 2.62011 9.5264 2.57322 9.57329C2.52634 9.62017 2.5 9.68376 2.5 9.75007V14.2501C2.5 14.3881 2.612 14.5001 2.75 14.5001H5.75C5.937 14.5001 6.117 14.5691 6.255 14.6951L10.5 18.5551V5.44507ZM18.718 4.22207C18.8586 4.08162 19.0492 4.00273 19.248 4.00273C19.4467 4.00273 19.6374 4.08162 19.778 4.22207C24.074 8.51807 24.074 15.4821 19.778 19.7781C19.6358 19.9105 19.4478 19.9827 19.2535 19.9792C19.0592 19.9758 18.8738 19.8971 18.7364 19.7597C18.599 19.6223 18.5203 19.4369 18.5168 19.2426C18.5134 19.0483 18.5855 18.8602 18.718 18.7181C19.6003 17.8359 20.3002 16.7886 20.7777 15.6359C21.2552 14.4832 21.501 13.2477 21.501 12.0001C21.501 10.7524 21.2552 9.51694 20.7777 8.36426C20.3002 7.21157 19.6003 6.16424 18.718 5.28207C18.5775 5.14144 18.4987 4.95082 18.4987 4.75207C18.4987 4.55331 18.5775 4.36269 18.718 4.22207Z" fill="#F8F8F8"/>
<path d="M16.2431 7.75685C16.1735 7.68718 16.0908 7.63192 15.9997 7.59422C15.9087 7.55652 15.8112 7.53711 15.7126 7.53711C15.6141 7.53711 15.5166 7.55652 15.4255 7.59422C15.3345 7.63192 15.2518 7.68718 15.1821 7.75685C15.1125 7.82652 15.0572 7.90922 15.0195 8.00025C14.9818 8.09127 14.9624 8.18883 14.9624 8.28735C14.9624 8.38587 14.9818 8.48343 15.0195 8.57445C15.0572 8.66548 15.1125 8.74818 15.1821 8.81785C15.6 9.23571 15.9315 9.73179 16.1576 10.2778C16.3838 10.8237 16.5002 11.4089 16.5002 11.9998C16.5002 12.5908 16.3838 13.176 16.1576 13.7219C15.9315 14.2679 15.6 14.764 15.1821 15.1818C15.0497 15.324 14.9775 15.5121 14.981 15.7064C14.9844 15.9007 15.0631 16.0861 15.2005 16.2235C15.3379 16.3609 15.5233 16.4396 15.7176 16.443C15.9119 16.4465 16.1 16.3743 16.2421 16.2418C17.3673 15.1166 17.9994 13.5906 17.9994 11.9994C17.9994 10.4081 17.3683 8.88206 16.2431 7.75685Z" fill="#F8F8F8"/>
</svg>
